InazumaLanguageNoVert-Regular.ufo
<glyph name="A" format="2">
  <advance width="782"/>
  <unicode hex="0041"/>
  <outline>
    <contour>
      <point x="436" y="470" type="curve"/>
      <point x="385" y="470"/>
      <point x="353" y="494"/>
      <point x="329" y="528" type="curve" smooth="yes"/>
      <point x="308" y="558"/>
      <point x="317" y="595"/>
      <point x="348" y="611" type="curve"/>
      <point x="361" y="618"/>
      <point x="381" y="617"/>
      <point x="394" y="612" type="curve"/>
      <point x="435" y="595"/>
      <point x="461" y="564"/>
      <point x="471" y="520" type="curve" smooth="yes"/>
      <point x="478" y="490"/>
      <point x="471" y="467"/>
    </contour>
    <contour>
      <point x="384.686" y="0" type="curve" smooth="yes"/>
      <point x="327" y="0"/>
      <point x="272" y="14"/>
      <point x="224" y="43" type="curve" smooth="yes"/>
      <point x="188" y="65"/>
      <point x="160" y="94"/>
      <point x="137" y="129" type="curve" smooth="yes"/>
      <point x="129" y="141"/>
      <point x="125" y="159"/>
      <point x="124" y="175" type="curve" smooth="yes"/>
      <point x="121" y="219"/>
      <point x="120" y="263"/>
      <point x="120" y="307" type="curve"/>
      <point x="120" y="310" type="line"/>
      <point x="121" y="340"/>
      <point x="122" y="340"/>
      <point x="91" y="343" type="curve"/>
      <point x="70" y="346"/>
      <point x="51" y="352"/>
      <point x="42" y="373" type="curve" smooth="yes"/>
      <point x="36" y="387"/>
      <point x="35" y="399"/>
      <point x="48" y="408" type="curve"/>
      <point x="66" y="421"/>
      <point x="84" y="435"/>
      <point x="103" y="445" type="curve"/>
      <point x="123" y="456"/>
      <point x="144" y="465"/>
      <point x="167" y="472" type="curve"/>
      <point x="185" y="478"/>
      <point x="204" y="479"/>
      <point x="223" y="478" type="curve"/>
      <point x="231" y="478"/>
      <point x="242" y="472"/>
      <point x="246" y="465" type="curve" smooth="yes"/>
      <point x="254" y="451"/>
      <point x="260" y="437"/>
      <point x="264" y="422" type="curve"/>
      <point x="266" y="417"/>
      <point x="262" y="409"/>
      <point x="259" y="404" type="curve"/>
      <point x="216" y="353"/>
      <point x="217" y="292"/>
      <point x="223" y="232" type="curve" smooth="yes"/>
      <point x="229" y="181"/>
      <point x="251" y="146"/>
      <point x="312" y="129" type="curve" smooth="yes"/>
      <point x="353" y="117"/>
      <point x="393" y="121"/>
      <point x="433" y="137" type="curve"/>
      <point x="497" y="161"/>
      <point x="538" y="208"/>
      <point x="570" y="266" type="curve" smooth="yes"/>
      <point x="599" y="319"/>
      <point x="604" y="376"/>
      <point x="607" y="433" type="curve" smooth="yes"/>
      <point x="608" y="461"/>
      <point x="605" y="486"/>
      <point x="590" y="510" type="curve"/>
      <point x="574" y="534"/>
      <point x="591" y="579"/>
      <point x="631" y="580" type="curve"/>
      <point x="644" y="581"/>
      <point x="658" y="581"/>
      <point x="671" y="580" type="curve"/>
      <point x="703" y="579"/>
      <point x="732" y="551"/>
      <point x="734" y="519" type="curve" smooth="yes"/>
      <point x="735" y="499"/>
      <point x="734" y="482"/>
      <point x="711" y="474" type="curve"/>
      <point x="698" y="470"/>
      <point x="693" y="459"/>
      <point x="693" y="445" type="curve" smooth="yes"/>
      <point x="693" y="394"/>
      <point x="694" y="344"/>
      <point x="690" y="294" type="curve" smooth="yes"/>
      <point x="688" y="265"/>
      <point x="679" y="236"/>
      <point x="670" y="209" type="curve" smooth="yes"/>
      <point x="650" y="152"/>
      <point x="618" y="102"/>
      <point x="572" y="63" type="curve" smooth="yes"/>
      <point x="524" y="22"/>
      <point x="457" y="0"/>
    </contour>
    <contour>
      <point x="369" y="432" type="curve"/>
      <point x="428" y="432"/>
      <point x="479" y="384"/>
      <point x="480" y="327" type="curve"/>
      <point x="480" y="308"/>
      <point x="472" y="300"/>
      <point x="452" y="302" type="curve"/>
      <point x="397" y="306"/>
      <point x="353" y="332"/>
      <point x="321" y="377" type="curve"/>
      <point x="305" y="401"/>
      <point x="318" y="429"/>
      <point x="347" y="432" type="curve"/>
      <point x="354" y="433"/>
      <point x="361" y="433"/>
    </contour>
  </outline>
</glyph>
<glyph name="D" format="2">
  <advance width="763"/>
  <unicode hex="0044"/>
  <outline>
    <contour>
      <point x="653.87" y="469.698" type="line" smooth="yes"/>
      <point x="691.233" y="437.241"/>
      <point x="692" y="435"/>
      <point x="695" y="428" type="curve"/>
      <point x="686" y="429"/>
      <point x="685" y="429"/>
      <point x="676" y="430" type="curve" smooth="yes"/>
      <point x="659" y="431"/>
      <point x="655" y="425"/>
      <point x="659" y="411" type="curve" smooth="yes"/>
      <point x="662" y="402"/>
      <point x="665" y="393"/>
      <point x="669" y="384" type="curve" smooth="yes"/>
      <point x="687" y="340"/>
      <point x="686" y="294"/>
      <point x="676" y="248" type="curve" smooth="yes"/>
      <point x="667" y="207"/>
      <point x="654" y="166"/>
      <point x="629" y="131" type="curve" smooth="yes"/>
      <point x="611" y="106"/>
      <point x="585" y="91"/>
      <point x="560" y="74" type="curve" smooth="yes"/>
      <point x="530" y="54"/>
      <point x="496" y="40"/>
      <point x="461" y="33" type="curve" smooth="yes"/>
      <point x="381" y="18"/>
      <point x="301" y="14"/>
      <point x="227" y="54" type="curve" smooth="yes"/>
      <point x="162" y="90"/>
      <point x="112" y="140"/>
      <point x="83" y="210" type="curve" smooth="yes"/>
      <point x="68" y="244"/>
      <point x="60" y="279"/>
      <point x="59" y="309" type="curve" smooth="yes"/>
      <point x="58" y="339"/>
      <point x="57" y="351"/>
      <point x="63" y="387" type="curve" smooth="yes"/>
      <point x="68" y="418"/>
      <point x="88" y="451"/>
      <point x="100" y="491" type="curve" smooth="yes"/>
      <point x="103" y="500"/>
      <point x="103" y="509"/>
      <point x="101" y="518" type="curve" smooth="yes"/>
      <point x="100" y="526"/>
      <point x="98" y="533"/>
      <point x="95" y="540" type="curve" smooth="yes"/>
      <point x="89" y="555"/>
      <point x="93" y="568"/>
      <point x="103" y="579" type="curve" smooth="yes"/>
      <point x="129" y="610"/>
      <point x="158" y="639"/>
      <point x="195" y="658" type="curve" smooth="yes"/>
      <point x="218" y="670"/>
      <point x="243" y="671"/>
      <point x="268" y="667" type="curve" smooth="yes"/>
      <point x="306" y="662"/>
      <point x="332" y="637"/>
      <point x="355" y="611" type="curve" smooth="yes"/>
      <point x="371" y="593"/>
      <point x="373" y="567"/>
      <point x="360" y="543" type="curve" smooth="yes"/>
      <point x="345" y="516"/>
      <point x="330" y="488"/>
      <point x="316" y="461" type="curve" smooth="yes"/>
      <point x="306" y="442"/>
      <point x="318" y="408"/>
      <point x="338" y="402" type="curve" smooth="yes"/>
      <point x="370" y="392"/>
      <point x="396" y="373"/>
      <point x="421" y="352" type="curve" smooth="yes"/>
      <point x="434" y="340"/>
      <point x="439" y="326"/>
      <point x="433" y="310" type="curve" smooth="yes"/>
      <point x="426" y="294"/>
      <point x="412" y="288"/>
      <point x="396" y="287" type="curve"/>
      <point x="384" y="287"/>
      <point x="372" y="290"/>
      <point x="360" y="291" type="curve" smooth="yes"/>
      <point x="333" y="293"/>
      <point x="306" y="296"/>
      <point x="279" y="295" type="curve" smooth="yes"/>
      <point x="261" y="294"/>
      <point x="243" y="287"/>
      <point x="237" y="266" type="curve" smooth="yes"/>
      <point x="231" y="246"/>
      <point x="235" y="226"/>
      <point x="250" y="210" type="curve" smooth="yes"/>
      <point x="275" y="185"/>
      <point x="306" y="170"/>
      <point x="340" y="160" type="curve" smooth="yes"/>
      <point x="423" y="135"/>
      <point x="499" y="166"/>
      <point x="548" y="239" type="curve" smooth="yes"/>
      <point x="582" y="291"/>
      <point x="573" y="342"/>
      <point x="560" y="395" type="curve" smooth="yes"/>
      <point x="546" y="453"/>
      <point x="511" y="497"/>
      <point x="460" y="528" type="curve"/>
      <point x="440" y="539"/>
      <point x="422" y="552"/>
      <point x="404" y="565" type="curve" smooth="yes"/>
      <point x="400" y="568"/>
      <point x="396" y="575"/>
      <point x="397" y="579" type="curve"/>
      <point x="397" y="582"/>
      <point x="405" y="585"/>
      <point x="409" y="586" type="curve" smooth="yes"/>
      <point x="475" y="596"/>
      <point x="531.785" y="575.753"/>
      <point x="581" y="533" type="curve" smooth="yes"/>
    </contour>
  </outline>
  <guideline angle="0" x="0" y="22"/>
  <guideline angle="0" x="0" y="669"/>
</glyph>
<glyph name="F" format="2">
  <advance width="692"/>
  <unicode hex="0046"/>
  <outline>
    <contour>
      <point x="118" y="299" type="curve" smooth="yes"/>
      <point x="80" y="300"/>
      <point x="67" y="318"/>
      <point x="51" y="349" type="curve" smooth="yes"/>
      <point x="42" y="368"/>
      <point x="54" y="388"/>
      <point x="77" y="399" type="curve" smooth="yes"/>
      <point x="105" y="413"/>
      <point x="134" y="416"/>
      <point x="164" y="416" type="curve" smooth="yes"/>
      <point x="196" y="417"/>
      <point x="228" y="416"/>
      <point x="261" y="417" type="curve" smooth="yes"/>
      <point x="275" y="417"/>
      <point x="289" y="418"/>
      <point x="303" y="420" type="curve" smooth="yes"/>
      <point x="316" y="422"/>
      <point x="327" y="428"/>
      <point x="327" y="443" type="curve" smooth="yes"/>
      <point x="327" y="449" type="line" smooth="yes"/>
      <point x="327" y="500"/>
      <point x="327" y="492"/>
      <point x="290" y="493" type="curve" smooth="yes"/>
      <point x="267" y="494"/>
      <point x="243" y="496"/>
      <point x="220" y="498" type="curve" smooth="yes"/>
      <point x="198" y="500"/>
      <point x="177" y="525"/>
      <point x="173" y="552" type="curve" smooth="yes"/>
      <point x="170" y="577"/>
      <point x="181" y="591"/>
      <point x="205" y="602" type="curve" smooth="yes"/>
      <point x="246" y="620"/>
      <point x="288" y="614"/>
      <point x="330" y="609" type="curve" smooth="yes"/>
      <point x="374" y="604"/>
      <point x="418" y="598"/>
      <point x="461" y="592" type="curve" smooth="yes"/>
      <point x="477" y="590"/>
      <point x="494" y="574"/>
      <point x="499" y="557" type="curve" smooth="yes"/>
      <point x="503" y="541"/>
      <point x="498" y="529"/>
      <point x="483" y="517" type="curve" smooth="yes"/>
      <point x="468" y="505"/>
      <point x="453" y="494"/>
      <point x="434" y="492" type="curve" smooth="yes"/>
      <point x="429" y="491"/>
      <point x="423" y="484"/>
      <point x="423" y="479" type="curve" smooth="yes"/>
      <point x="422" y="466"/>
      <point x="423" y="453"/>
      <point x="425" y="440" type="curve" smooth="yes"/>
      <point x="427" y="427"/>
      <point x="437" y="422"/>
      <point x="449" y="420" type="curve" smooth="yes"/>
      <point x="466" y="418"/>
      <point x="484" y="417"/>
      <point x="501" y="417" type="curve" smooth="yes"/>
      <point x="577" y="417" type="line" smooth="yes"/>
      <point x="608" y="417"/>
      <point x="629" y="387"/>
      <point x="612" y="354" type="curve" smooth="yes"/>
      <point x="609" y="348"/>
      <point x="603" y="345"/>
      <point x="597" y="345" type="curve" smooth="yes"/>
      <point x="574" y="345"/>
      <point x="553" y="340"/>
      <point x="532" y="333" type="curve" smooth="yes"/>
      <point x="509" y="326"/>
      <point x="484" y="324"/>
      <point x="459" y="320" type="curve" smooth="yes"/>
      <point x="452" y="319"/>
      <point x="444" y="318"/>
      <point x="436" y="316" type="curve" smooth="yes"/>
      <point x="425" y="314"/>
      <point x="418" y="307"/>
      <point x="418" y="295" type="curve" smooth="yes"/>
      <point x="416" y="247"/>
      <point x="414" y="199"/>
      <point x="412" y="151" type="curve" smooth="yes"/>
      <point x="411" y="130"/>
      <point x="405" y="111"/>
      <point x="386" y="98" type="curve" smooth="yes"/>
      <point x="371" y="88"/>
      <point x="353" y="93"/>
      <point x="347" y="109" type="curve" smooth="yes"/>
      <point x="342" y="122"/>
      <point x="338" y="135"/>
      <point x="337" y="148" type="curve" smooth="yes"/>
      <point x="335" y="191"/>
      <point x="335" y="234"/>
      <point x="334" y="276" type="curve" smooth="yes"/>
      <point x="334" y="294"/>
      <point x="329" y="300"/>
      <point x="312" y="300" type="curve" smooth="yes"/>
      <point x="248" y="301"/>
      <point x="182" y="296"/>
    </contour>
    <contour>
      <point x="204" y="236" type="curve" smooth="yes"/>
      <point x="218" y="236"/>
      <point x="234" y="230"/>
      <point x="249" y="223" type="curve" smooth="yes"/>
      <point x="267" y="214"/>
      <point x="273" y="197"/>
      <point x="267" y="178" type="curve" smooth="yes"/>
      <point x="258" y="148"/>
      <point x="232" y="119"/>
      <point x="201" y="120" type="curve" smooth="yes"/>
      <point x="165" y="122"/>
      <point x="139" y="148"/>
      <point x="139" y="181" type="curve" smooth="yes"/>
      <point x="139" y="203"/>
      <point x="142" y="221"/>
      <point x="164" y="230" type="curve" smooth="yes"/>
      <point x="175" y="235"/>
      <point x="187" y="237"/>
    </contour>
    <contour>
      <point x="501" y="-28" type="curve" smooth="yes"/>
      <point x="478" y="-29"/>
      <point x="462" y="-18"/>
      <point x="457" y="-1" type="curve" smooth="yes"/>
      <point x="455" y="5"/>
      <point x="456" y="12"/>
      <point x="460" y="17" type="curve" smooth="yes"/>
      <point x="466" y="24"/>
      <point x="475" y="29"/>
      <point x="483" y="36" type="curve" smooth="yes"/>
      <point x="501" y="50"/>
      <point x="518" y="63"/>
      <point x="535" y="78" type="curve" smooth="yes"/>
      <point x="550" y="91"/>
      <point x="552" y="107"/>
      <point x="544" y="125" type="curve" smooth="yes"/>
      <point x="537" y="140"/>
      <point x="523" y="145"/>
      <point x="509" y="147" type="curve" smooth="yes"/>
      <point x="493" y="150"/>
      <point x="480" y="153"/>
      <point x="469" y="167" type="curve" smooth="yes"/>
      <point x="463" y="174"/>
      <point x="462" y="184"/>
      <point x="464" y="193" type="curve" smooth="yes"/>
      <point x="472" y="221"/>
      <point x="498" y="236"/>
      <point x="525" y="226" type="curve" smooth="yes"/>
      <point x="558" y="213"/>
      <point x="586" y="190"/>
      <point x="607" y="161" type="curve" smooth="yes"/>
      <point x="613" y="152"/>
      <point x="613" y="139"/>
      <point x="615" y="127" type="curve" smooth="yes"/>
      <point x="622" y="73"/>
      <point x="600" y="31"/>
      <point x="560" y="-3" type="curve" smooth="yes"/>
      <point x="544" y="-17"/>
      <point x="523" y="-27"/>
    </contour>
  </outline>
  <guideline angle="0" x="0" y="613"/>
</glyph>
<glyph name="H" format="2">
  <advance width="890"/>
  <unicode hex="0048"/>
  <outline>
    <contour>
      <point x="79.8105" y="329.5" type="curve" smooth="yes"/>
      <point x="98.9199" y="411.27"/>
      <point x="126.944" y="489.798"/>
      <point x="188.581" y="550.837" type="curve" smooth="yes"/>
      <point x="199.628" y="561.8"/>
      <point x="214.643" y="569.051"/>
      <point x="228.506" y="576.729" type="curve" smooth="yes"/>
      <point x="241.644" y="584.066"/>
      <point x="255.336" y="579.075"/>
      <point x="264.72" y="570.416" type="curve" smooth="yes"/>
      <point x="277.516" y="558.6"/>
      <point x="287.839" y="543.97"/>
      <point x="298.332" y="529.808" type="curve" smooth="yes"/>
      <point x="304.858" y="520.979"/>
      <point x="309.209" y="510.571"/>
      <point x="315.394" y="501.485" type="curve" smooth="yes"/>
      <point x="332.541" y="476.276"/>
      <point x="331.091" y="452.816"/>
      <point x="312.536" y="428.972" type="curve" smooth="yes"/>
      <point x="294.706" y="406.066"/>
      <point x="274.786" y="383.758"/>
      <point x="262.502" y="357.951" type="curve" smooth="yes"/>
      <point x="250.516" y="332.828"/>
      <point x="244.416" y="303.95"/>
      <point x="240.577" y="276.054" type="curve" smooth="yes"/>
      <point x="236.994" y="249.864"/>
      <point x="238.914" y="222.735"/>
      <point x="240.065" y="196.076" type="curve" smooth="yes"/>
      <point x="240.62" y="182.81"/>
      <point x="243.648" y="169.203"/>
      <point x="247.871" y="156.534" type="curve" smooth="yes"/>
      <point x="254.952" y="135.292"/>
      <point x="273.763" y="129.918"/>
      <point x="289.844" y="145.444" type="curve" smooth="yes"/>
      <point x="306.437" y="161.44"/>
      <point x="322.603" y="178.544"/>
      <point x="335.229" y="197.654" type="curve" smooth="yes"/>
      <point x="360.95" y="236.427"/>
      <point x="387.694" y="241.759"/>
      <point x="430.221" y="220.773" type="curve" smooth="yes"/>
      <point x="466.734" y="202.772"/>
      <point x="488.403" y="170.696"/>
      <point x="512.247" y="140.326" type="curve" smooth="yes"/>
      <point x="527.475" y="121.003"/>
      <point x="543.428" y="102.235"/>
      <point x="559.423" y="83.5518" type="curve" smooth="yes"/>
      <point x="582.798" y="56.2526"/>
      <point x="613.51" y="56.082"/>
      <point x="644.094" y="64.5703" type="curve" smooth="yes"/>
      <point x="689.436" y="77.1109"/>
      <point x="733.925" y="92.6799"/>
      <point x="778.969" y="106.159" type="curve" smooth="yes"/>
      <point x="784.855" y="107.95"/>
      <point x="795.22" y="107.439"/>
      <point x="798.035" y="103.77" type="curve" smooth="yes"/>
      <point x="801.661" y="99.0355"/>
      <point x="802.216" y="89.1822"/>
      <point x="799.912" y="83.0826" type="curve" smooth="yes"/>
      <point x="786.561" y="48.1908"/>
      <point x="761.651" y="23.4082"/>
      <point x="728.977" y="6.21825" type="curve" smooth="yes"/>
      <point x="684.914" y="-17.0287"/>
      <point x="637.226" y="-19.8013"/>
      <point x="589.41" y="-14.768" type="curve" smooth="yes"/>
      <point x="558.57" y="-11.5262"/>
      <point x="532.38" y="6.21825"/>
      <point x="512.162" y="28.8254" type="curve" smooth="yes"/>
      <point x="490.152" y="53.3947"/>
      <point x="473.729" y="82.9119"/>
      <point x="451.421" y="107.097" type="curve" smooth="yes"/>
      <point x="436.875" y="122.88"/>
      <point x="408.766" y="146.084"/>
      <point x="397.931" y="145.146" type="curve" smooth="yes"/>
      <point x="394.775" y="144.847"/>
      <point x="387.438" y="143.226"/>
      <point x="383.685" y="140.07" type="curve" smooth="yes"/>
      <point x="359.883" y="119.936"/>
      <point x="346.66" y="92.7652"/>
      <point x="336.508" y="64.1864" type="curve" smooth="yes"/>
      <point x="324.949" y="31.5126"/>
      <point x="295.986" y="9.92922"/>
      <point x="261.99" y="4.93858" type="curve" smooth="yes"/>
      <point x="189.562" y="-5.68251"/>
      <point x="146.224" y="36.4606"/>
      <point x="111.247" y="89.0969" type="curve" smooth="yes"/>
      <point x="94.2279" y="114.775"/>
      <point x="84.076" y="146.084"/>
      <point x="75.8009" y="176.241" type="curve" smooth="yes"/>
      <point x="64.412" y="217.787"/>
      <point x="71.1942" y="292.647"/>
    </contour>
    <contour>
      <point x="521.418" y="449.574" type="curve"/>
      <point x="557.163" y="445.479"/>
      <point x="594.145" y="432.299"/>
      <point x="609.287" y="386.871" type="curve" smooth="yes"/>
      <point x="616.538" y="365.203"/>
      <point x="623.697" y="343.775"/>
      <point x="626.783" y="332.425" type="curve" smooth="yes"/>
      <point x="628.544" y="325.948"/>
      <point x="629.676" y="317.344"/>
      <point x="629.804" y="315.339" type="curve" smooth="yes"/>
      <point x="631.468" y="287.187"/>
      <point x="616.752" y="275.713"/>
      <point x="590.647" y="286.376" type="curve" smooth="yes"/>
      <point x="552.742" y="301.93"/>
      <point x="508.842" y="333.552"/>
      <point x="478.293" y="360.127" type="curve" smooth="yes"/>
      <point x="467.971" y="369.127"/>
      <point x="458.416" y="382.734"/>
      <point x="455.686" y="395.786" type="curve" smooth="yes"/>
      <point x="449.715" y="424.493"/>
      <point x="479.232" y="450.001"/>
    </contour>
  </outline>
  <guideline angle="0" x="0" y="604"/>
</glyph>
<glyph name="K" format="2">
  <advance width="874"/>
  <unicode hex="004B"/>
  <outline>
    <contour>
      <point x="570.982" y="242.913" type="curve"/>
      <point x="580.294" y="280.701"/>
      <point x="589.822" y="315.674"/>
      <point x="597.131" y="351.08" type="curve" smooth="yes"/>
      <point x="599.784" y="364.073"/>
      <point x="598.809" y="378.474"/>
      <point x="596.373" y="391.684" type="curve" smooth="yes"/>
      <point x="592.583" y="412.635"/>
      <point x="577.858" y="424.491"/>
      <point x="556.636" y="425.574" type="curve" smooth="yes"/>
      <point x="515.599" y="427.739"/>
      <point x="478.082" y="414.421"/>
      <point x="441.539" y="397.855" type="curve" smooth="yes"/>
      <point x="437.154" y="395.906"/>
      <point x="432.39" y="390.926"/>
      <point x="431.253" y="386.486" type="curve" smooth="yes"/>
      <point x="417.339" y="333.052"/>
      <point x="404.022" y="279.402"/>
      <point x="390.595" y="225.86" type="curve" smooth="yes"/>
      <point x="387.131" y="212"/>
      <point x="392.707" y="201.931"/>
      <point x="405.429" y="197.113" type="curve" smooth="yes"/>
      <point x="458.105" y="177.298"/>
      <point x="510.402" y="156.022"/>
      <point x="564.053" y="139.293" type="curve" smooth="yes"/>
      <point x="602.49" y="127.329"/>
      <point x="643.635" y="124.189"/>
      <point x="682.235" y="112.712" type="curve" smooth="yes"/>
      <point x="716.45" y="102.588"/>
      <point x="748.933" y="86.455"/>
      <point x="770.426" y="55.4341" type="curve" smooth="yes"/>
      <point x="782.661" y="37.731"/>
      <point x="781.632" y="27.4449"/>
      <point x="761.872" y="20.6776" type="curve" smooth="yes"/>
      <point x="736.265" y="11.9615"/>
      <point x="709.25" y="6.11459"/>
      <point x="682.344" y="2.70391" type="curve" smooth="yes"/>
      <point x="631.671" y="-3.73848"/>
      <point x="584.192" y="10.7163"/>
      <point x="538.879" y="31.7759" type="curve" smooth="yes"/>
      <point x="487.61" y="55.5965"/>
      <point x="436.937" y="80.7705"/>
      <point x="386.102" y="105.457" type="curve" smooth="yes"/>
      <point x="363.364" y="116.501"/>
      <point x="355.081" y="116.122"/>
      <point x="336.674" y="97.878" type="curve" smooth="yes"/>
      <point x="317.293" y="78.5509"/>
      <point x="300.023" y="57.1123"/>
      <point x="280.479" y="37.8934" type="curve" smooth="yes"/>
      <point x="242.691" y="0.592537"/>
      <point x="180.108" y="-1.62711"/>
      <point x="143.132" y="36.0528" type="curve" smooth="yes"/>
      <point x="125.266" y="54.243"/>
      <point x="113.735" y="79.0381"/>
      <point x="100.796" y="101.614" type="curve" smooth="yes"/>
      <point x="94.083" y="113.307"/>
      <point x="91.1596" y="127.058"/>
      <point x="85.421" y="139.456" type="curve" smooth="yes"/>
      <point x="71.2369" y="170.206"/>
      <point x="82.7682" y="198.628"/>
      <point x="99.7674" y="221.583" type="curve" smooth="yes"/>
      <point x="115.034" y="242.263"/>
      <point x="140.046" y="256.989"/>
      <point x="167.602" y="256.393" type="curve" smooth="yes"/>
      <point x="198.244" y="255.744"/>
      <point x="228.778" y="250.546"/>
      <point x="259.311" y="247.082" type="curve" smooth="yes"/>
      <point x="266.403" y="246.324"/>
      <point x="273.387" y="244.483"/>
      <point x="280.371" y="243.075" type="curve" smooth="yes"/>
      <point x="295.367" y="240.044"/>
      <point x="307.44" y="245.079"/>
      <point x="311.879" y="259.533" type="curve" smooth="yes"/>
      <point x="319.188" y="283.3"/>
      <point x="325.63" y="307.499"/>
      <point x="330.015" y="331.97" type="curve" smooth="yes"/>
      <point x="333.372" y="350.864"/>
      <point x="322.815" y="364.615"/>
      <point x="304.787" y="370.028" type="curve" smooth="yes"/>
      <point x="286.597" y="375.442"/>
      <point x="267.649" y="378.366"/>
      <point x="249.025" y="382.426" type="curve" smooth="yes"/>
      <point x="213.998" y="390.005"/>
      <point x="183.14" y="405.38"/>
      <point x="157.262" y="430.663" type="curve" smooth="yes"/>
      <point x="126.566" y="460.601"/>
      <point x="142.645" y="519.936"/>
      <point x="179.945" y="534.445" type="curve" smooth="yes"/>
      <point x="194.021" y="539.913"/>
      <point x="212.374" y="535.203"/>
      <point x="228.669" y="533.795" type="curve" smooth="yes"/>
      <point x="256.875" y="531.467"/>
      <point x="285.027" y="525.729"/>
      <point x="313.124" y="525.837" type="curve" smooth="yes"/>
      <point x="333.751" y="525.945"/>
      <point x="338.677" y="535.527"/>
      <point x="338.028" y="556.641" type="curve" smooth="yes"/>
      <point x="336.566" y="602.983"/>
      <point x="334.833" y="649.325"/>
      <point x="333.751" y="695.667" type="curve" smooth="yes"/>
      <point x="333.155" y="720.462"/>
      <point x="346.527" y="738.003"/>
      <point x="365.313" y="752.403" type="curve" smooth="yes"/>
      <point x="377.981" y="762.148"/>
      <point x="388.863" y="761.661"/>
      <point x="399.257" y="748.776" type="curve" smooth="yes"/>
      <point x="417.664" y="726.092"/>
      <point x="424.756" y="699.078"/>
      <point x="427.192" y="670.98" type="curve" smooth="yes"/>
      <point x="430.387" y="633.03"/>
      <point x="432.39" y="594.862"/>
      <point x="433.472" y="556.749" type="curve" smooth="yes"/>
      <point x="433.906" y="540.671"/>
      <point x="440.884" y="535.883"/>
      <point x="455.344" y="536.448" type="curve" smooth="yes"/>
      <point x="492.989" y="537.918"/>
      <point x="533.579" y="542.565"/>
      <point x="569.9" y="553.014" type="curve" smooth="yes"/>
      <point x="611.413" y="564.957"/>
      <point x="654.463" y="560.052"/>
      <point x="695.932" y="549.495" type="curve" smooth="yes"/>
      <point x="754.238" y="534.661"/>
      <point x="784.014" y="478.466"/>
      <point x="758.786" y="424.166" type="curve" smooth="yes"/>
      <point x="727.332" y="356.548"/>
      <point x="682.939" y="297.538"/>
      <point x="622.359" y="252.279" type="curve" smooth="yes"/>
      <point x="607.417" y="241.126"/>
      <point x="590.58" y="237.662"/>
    </contour>
    <contour>
      <point x="205.877" y="180.276" type="curve" smooth="yes"/>
      <point x="186.753" y="182.775"/>
      <point x="177.455" y="168.744"/>
      <point x="169.605" y="155.372" type="curve" smooth="yes"/>
      <point x="161.593" y="141.675"/>
      <point x="158.29" y="126.517"/>
      <point x="166.844" y="111.358" type="curve" smooth="yes"/>
      <point x="182.003" y="84.7226"/>
      <point x="199.056" y="82.3947"/>
      <point x="219.628" y="105.349" type="curve" smooth="yes"/>
      <point x="228.182" y="114.877"/>
      <point x="235.058" y="126.3"/>
      <point x="241.121" y="137.778" type="curve" smooth="yes"/>
      <point x="252.382" y="159.216"/>
      <point x="249.133" y="166.904"/>
      <point x="226.45" y="174.916" type="curve" smooth="yes"/>
      <point x="219.791" y="177.298"/>
      <point x="212.921" y="179.355"/>
    </contour>
    <contour>
      <point x="810.607" y="79.7427" type="curve" smooth="yes"/>
      <point x="807.623" y="82.9633"/>
      <point x="806.194" y="88.8428"/>
      <point x="803.45" y="93.7094" type="curve" smooth="yes"/>
      <point x="802.165" y="95.9875"/>
      <point x="809.565" y="105.622"/>
      <point x="813.882" y="105.901" type="curve" smooth="yes"/>
      <point x="817.955" y="106.165"/>
      <point x="824.617" y="98.6901"/>
      <point x="824.509" y="95.2253" type="curve" smooth="yes"/>
      <point x="824.293" y="89.4867"/>
      <point x="820.773" y="83.3259"/>
      <point x="818.067" y="80.0856" type="curve" smooth="yes"/>
      <point x="815.913" y="77.505"/>
      <point x="812.608" y="77.5827"/>
    </contour>
  </outline>
  <guideline angle="0" x="0" y="758.102"/>
  <guideline angle="0" x="0" y="1.15741"/>
</glyph>
<glyph name="O" format="2">
  <advance width="673"/>
  <unicode hex="004F"/>
  <outline>
    <contour>
      <point x="607.241" y="380.305" type="curve" smooth="yes"/>
      <point x="609.101" y="325.914"/>
      <point x="592.877" y="276.19"/>
      <point x="571.789" y="227.654" type="curve" smooth="yes"/>
      <point x="559.575" y="199.613"/>
      <point x="543.739" y="177.117"/>
      <point x="538.028" y="175.883" type="curve" smooth="yes"/>
      <point x="499.786" y="167.624"/>
      <point x="487.252" y="161.507"/>
      <point x="475.907" y="157.848" type="curve" smooth="yes"/>
      <point x="473.847" y="157.147"/>
      <point x="470.806" y="156.225"/>
      <point x="468.679" y="157.116" type="curve"/>
      <point x="454.178" y="163.52"/>
      <point x="439.492" y="167.624"/>
      <point x="423.529" y="163.017" type="curve" smooth="yes"/>
      <point x="420.614" y="162.175"/>
      <point x="418.045" y="171.221"/>
      <point x="419.275" y="173.538" type="curve" smooth="yes"/>
      <point x="428.561" y="190.601"/>
      <point x="438.305" y="207.481"/>
      <point x="448.917" y="223.675" type="curve" smooth="yes"/>
      <point x="461.726" y="243.253"/>
      <point x="476.273" y="261.46"/>
      <point x="482.494" y="285.019" type="curve" smooth="yes"/>
      <point x="492.192" y="321.615"/>
      <point x="490.82" y="358.577"/>
      <point x="486.703" y="395.31" type="curve" smooth="yes"/>
      <point x="482.474" y="433.803"/>
      <point x="417.683" y="443.572"/>
      <point x="387.619" y="448.1" type="curve" smooth="yes"/>
      <point x="357.411" y="452.649"/>
      <point x="363.468" y="443.622"/>
      <point x="361.91" y="424.083" type="curve" smooth="yes"/>
      <point x="359.123" y="389.117"/>
      <point x="358.622" y="360.608"/>
      <point x="363.786" y="328.019" type="curve" smooth="yes"/>
      <point x="366.972" y="307.91"/>
      <point x="368.132" y="286.574"/>
      <point x="375.451" y="267.864" type="curve" smooth="yes"/>
      <point x="384.783" y="244.077"/>
      <point x="371.334" y="223.903"/>
      <point x="355.049" y="210.317" type="curve" smooth="yes"/>
      <point x="350.063" y="206.154"/>
      <point x="344.024" y="203.227"/>
      <point x="339.084" y="199.018" type="curve" smooth="yes"/>
      <point x="315.891" y="179.165"/>
      <point x="290.96" y="177.792"/>
      <point x="263.65" y="189.961" type="curve" smooth="yes"/>
      <point x="252.854" y="194.809"/>
      <point x="240.823" y="198.332"/>
      <point x="229.113" y="199.293" type="curve" smooth="yes"/>
      <point x="180.349" y="203.318"/>
      <point x="140.748" y="223.994"/>
      <point x="108.168" y="257.642" type="curve" smooth="yes"/>
      <point x="73.8445" y="293.091"/>
      <point x="62.9227" y="309.845"/>
      <point x="69.4627" y="360.772" type="curve" smooth="yes"/>
      <point x="75.0436" y="404.184"/>
      <point x="93.2044" y="440.231"/>
      <point x="132.408" y="462.784" type="curve" smooth="yes"/>
      <point x="152.261" y="474.22"/>
      <point x="173.395" y="483.552"/>
      <point x="192.928" y="495.446" type="curve" smooth="yes"/>
      <point x="220.741" y="512.417"/>
      <point x="225.224" y="516.626"/>
      <point x="214.612" y="543.432" type="curve" smooth="yes"/>
      <point x="211.226" y="551.941"/>
      <point x="213.742" y="564.521"/>
      <point x="217.539" y="573.578" type="curve" smooth="yes"/>
      <point x="221.382" y="582.819"/>
      <point x="228.155" y="593.191"/>
      <point x="237.072" y="597.686" type="curve" smooth="yes"/>
      <point x="273.613" y="616.104"/>
      <point x="289.368" y="625.106"/>
      <point x="318.087" y="645.764" type="curve" smooth="yes"/>
      <point x="331.863" y="655.672"/>
      <point x="343.795" y="649.789"/>
      <point x="351.755" y="634.419" type="curve" smooth="yes"/>
      <point x="360.904" y="616.716"/>
      <point x="369.047" y="598.418"/>
      <point x="376.503" y="579.937" type="curve" smooth="yes"/>
      <point x="382.267" y="565.756"/>
      <point x="391.026" y="558.084"/>
      <point x="406.969" y="558.528" type="curve" smooth="yes"/>
      <point x="446.733" y="559.636"/>
      <point x="466.438" y="561.501"/>
      <point x="494.434" y="569.324" type="curve" smooth="yes"/>
      <point x="518.633" y="576.094"/>
      <point x="534.14" y="569.598"/>
      <point x="548.733" y="552.993" type="curve" smooth="yes"/>
      <point x="574.808" y="523.259"/>
      <point x="589.446" y="487.623"/>
      <point x="598.229" y="449.884" type="curve" smooth="yes"/>
      <point x="603.49" y="427.24"/>
      <point x="606.288" y="408.174"/>
    </contour>
    <contour>
      <point x="268.27" y="330.398" type="curve"/>
      <point x="266.669" y="355.329"/>
      <point x="266.075" y="374.862"/>
      <point x="263.97" y="394.303" type="curve" smooth="yes"/>
      <point x="260.906" y="422.986"/>
      <point x="246.084" y="434.01"/>
      <point x="220.101" y="422.803" type="curve" smooth="yes"/>
      <point x="203.862" y="415.758"/>
      <point x="190.092" y="401.989"/>
      <point x="176.689" y="389.637" type="curve" smooth="yes"/>
      <point x="164.155" y="378.155"/>
      <point x="160.45" y="362.099"/>
      <point x="162.6" y="345.494" type="curve" smooth="yes"/>
      <point x="167.494" y="307.983"/>
      <point x="197.457" y="279.163"/>
      <point x="235.426" y="274.68" type="curve" smooth="yes"/>
      <point x="251.208" y="272.805"/>
      <point x="260.814" y="278.34"/>
      <point x="264.199" y="294.122" type="curve" smooth="yes"/>
      <point x="267.081" y="307.708"/>
      <point x="267.401" y="321.798"/>
    </contour>
    <contour>
      <point x="372.433" y="12.4249" type="curve" smooth="yes"/>
      <point x="328.798" y="11.2886"/>
      <point x="298.92" y="26.8796"/>
      <point x="274.309" y="51.4447" type="curve" smooth="yes"/>
      <point x="263.101" y="62.6064"/>
      <point x="262.69" y="75.3693"/>
      <point x="270.283" y="89.7332" type="curve" smooth="yes"/>
      <point x="284.876" y="117.455"/>
      <point x="327.841" y="133.448"/>
      <point x="334.005" y="140.718" type="curve" smooth="yes"/>
      <point x="336.236" y="143.35"/>
      <point x="341.844" y="145.771"/>
      <point x="345.365" y="144.092" type="curve" smooth="yes"/>
      <point x="348.584" y="142.558"/>
      <point x="349.797" y="137.108"/>
      <point x="350.474" y="135.295" type="curve" smooth="yes"/>
      <point x="361.773" y="105.469"/>
      <point x="382.313" y="89.5502"/>
      <point x="414.563" y="87.9492" type="curve" smooth="yes"/>
      <point x="443.016" y="86.4853"/>
      <point x="471.424" y="83.8321"/>
      <point x="499.786" y="81.1789" type="curve" smooth="yes"/>
      <point x="513.189" y="79.898"/>
      <point x="526.638" y="78.2055"/>
      <point x="539.63" y="74.9118" type="curve" smooth="yes"/>
      <point x="544.936" y="73.5852"/>
      <point x="552.987" y="67.6384"/>
      <point x="552.942" y="63.933" type="curve" smooth="yes"/>
      <point x="552.804" y="58.2607"/>
      <point x="548.001" y="49.8893"/>
      <point x="542.923" y="47.6021" type="curve" smooth="yes"/>
      <point x="527.599" y="40.6946"/>
      <point x="511.542" y="34.2445"/>
      <point x="495.12" y="30.9509" type="curve" smooth="yes"/>
      <point x="451.662" y="22.2593"/>
      <point x="407.943" y="13.3496"/>
    </contour>
  </outline>
  <guideline angle="0" x="0" y="618"/>
  <guideline angle="0" x="0" y="-23"/>
</glyph>
<glyph name="P" format="2">
  <advance width="688"/>
  <unicode hex="0050"/>
  <outline>
    <contour>
      <point x="269.205" y="677.216" type="curve"/>
      <point x="228.325" y="679.688"/>
      <point x="190.58" y="680.834"/>
      <point x="153.197" y="684.572" type="curve" smooth="yes"/>
      <point x="127.572" y="687.165"/>
      <point x="101.826" y="691.748"/>
      <point x="77.1648" y="698.802" type="curve" smooth="yes"/>
      <point x="60.9454" y="703.445"/>
      <point x="55.3442" y="721.267"/>
      <point x="57.9909" y="735.703" type="curve" smooth="yes"/>
      <point x="60.1851" y="747.669" type="line" smooth="yes"/>
      <point x="62.9465" y="762.73"/>
      <point x="63.8526" y="770.931"/>
      <point x="68.9647" y="783.577" type="curve" smooth="yes"/>
      <point x="76.4029" y="801.977"/>
      <point x="103.755" y="815.654"/>
      <point x="130.466" y="804.499" type="curve" smooth="yes"/>
      <point x="181.355" y="783.215"/>
      <point x="234.897" y="772.844"/>
      <point x="290.067" y="773.568" type="curve" smooth="yes"/>
      <point x="315.813" y="773.869"/>
      <point x="341.197" y="774.533"/>
      <point x="365.255" y="789.426" type="curve" smooth="yes"/>
      <point x="382.439" y="800.098"/>
      <point x="403.784" y="805.283"/>
      <point x="423.922" y="809.142" type="curve" smooth="yes"/>
      <point x="437.971" y="811.795"/>
      <point x="453.28" y="811.2"/>
      <point x="466.777" y="805.35" type="curve" smooth="yes"/>
      <point x="477.703" y="800.614"/>
      <point x="506.093" y="798.512"/>
      <point x="531.308" y="797.204" type="curve" smooth="yes"/>
      <point x="541.526" y="796.673"/>
      <point x="551.808" y="795.937"/>
      <point x="561.757" y="794.008" type="curve" smooth="yes"/>
      <point x="575.745" y="791.355"/>
      <point x="587.804" y="786.17"/>
      <point x="590.035" y="769.046" type="curve" smooth="yes"/>
      <point x="592.266" y="752.103"/>
      <point x="590.759" y="737.632"/>
      <point x="575.685" y="726.357" type="curve" smooth="yes"/>
      <point x="553.738" y="709.957"/>
      <point x="538.262" y="700.653"/>
      <point x="521.179" y="706.559" type="curve" smooth="yes"/>
      <point x="480.017" y="720.791"/>
      <point x="443.337" y="716.89"/>
      <point x="414.576" y="704.409" type="curve" smooth="yes"/>
      <point x="409.029" y="701.998"/>
      <point x="403.542" y="698.078"/>
      <point x="399.684" y="693.436" type="curve" smooth="yes"/>
      <point x="367.727" y="655.329"/>
      <point x="343.79" y="613.364"/>
      <point x="351.628" y="561.51" type="curve" smooth="yes"/>
      <point x="355.306" y="537.211"/>
      <point x="365.677" y="513.997"/>
      <point x="372.912" y="490.181" type="curve" smooth="yes"/>
      <point x="377.013" y="476.675"/>
      <point x="379.931" y="462.067"/>
      <point x="381.393" y="448.113" type="curve" smooth="yes"/>
      <point x="382.217" y="440.256"/>
      <point x="389.363" y="435.861"/>
      <point x="394.428" y="435.672" type="curve" smooth="yes"/>
      <point x="420.053" y="434.715"/>
      <point x="444.941" y="420.446"/>
      <point x="465.724" y="408.389" type="curve" smooth="yes"/>
      <point x="476.691" y="402.027"/>
      <point x="492.423" y="398.296"/>
      <point x="512.918" y="397.447" type="curve" smooth="yes"/>
      <point x="548.676" y="395.966"/>
      <point x="571.585" y="374.716"/>
      <point x="589.854" y="342.759" type="curve" smooth="yes"/>
      <point x="606.797" y="313.154"/>
      <point x="604.566" y="283.971"/>
      <point x="605.833" y="252.98" type="curve" smooth="yes"/>
      <point x="608.064" y="198.232"/>
      <point x="599.019" y="145.112"/>
      <point x="587.081" y="92.3534" type="curve" smooth="yes"/>
      <point x="577.614" y="50.5689"/>
      <point x="548.492" y="22.2302"/>
      <point x="515.269" y="-2.43055" type="curve" smooth="yes"/>
      <point x="485.303" y="-24.7398"/>
      <point x="451.176" y="-32.8796"/>
      <point x="414.697" y="-33.4223" type="curve" smooth="yes"/>
      <point x="392.991" y="-33.784"/>
      <point x="371.164" y="-34.6282"/>
      <point x="349.578" y="-33.0605" type="curve" smooth="yes"/>
      <point x="338.785" y="-32.2766"/>
      <point x="326.907" y="-28.4781"/>
      <point x="318.164" y="-22.2677" type="curve" smooth="yes"/>
      <point x="312.014" y="-17.9264"/>
      <point x="305.925" y="-6.22913"/>
      <point x="307.432" y="0.463635" type="curve" smooth="yes"/>
      <point x="313.763" y="28.9229"/>
      <point x="324.315" y="56.8396"/>
      <point x="353.015" y="69.8633" type="curve" smooth="yes"/>
      <point x="373.455" y="79.0885"/>
      <point x="396.066" y="83.3695"/>
      <point x="417.531" y="90.3637" type="curve" smooth="yes"/>
      <point x="439.117" y="97.3579"/>
      <point x="461.546" y="102.784"/>
      <point x="481.564" y="112.914" type="curve" smooth="yes"/>
      <point x="500.075" y="122.26"/>
      <point x="510.687" y="141.012"/>
      <point x="511.169" y="161.934" type="curve" smooth="yes"/>
      <point x="511.953" y="196.664"/>
      <point x="511.41" y="231.575"/>
      <point x="508.818" y="266.245" type="curve" smooth="yes"/>
      <point x="506.888" y="291.448"/>
      <point x="494.045" y="312.973"/>
      <point x="473.304" y="327.866" type="curve" smooth="yes"/>
      <point x="451.115" y="343.905"/>
      <point x="427.6" y="357.531"/>
      <point x="400.269" y="359.819" type="curve" smooth="yes"/>
      <point x="392.546" y="360.465"/>
      <point x="388.207" y="359.966"/>
      <point x="381.595" y="359.168" type="curve"/>
      <point x="381.238" y="354.632"/>
      <point x="381.569" y="350.824"/>
      <point x="381.595" y="344.809" type="curve" smooth="yes"/>
      <point x="381.655" y="319.184"/>
      <point x="383.283" y="292.774"/>
      <point x="377.736" y="268.174" type="curve" smooth="yes"/>
      <point x="372.008" y="242.971"/>
      <point x="368.692" y="216.019"/>
      <point x="349.578" y="194.674" type="curve" smooth="yes"/>
      <point x="332.997" y="176.224"/>
      <point x="320.757" y="154.096"/>
      <point x="304.96" y="134.922" type="curve" smooth="yes"/>
      <point x="286.027" y="111.889"/>
      <point x="251.297" y="105.98"/>
      <point x="224.526" y="119.426" type="curve" smooth="yes"/>
      <point x="191.846" y="135.887"/>
      <point x="165.497" y="158.799"/>
      <point x="148.675" y="192.021" type="curve" smooth="yes"/>
      <point x="146.263" y="196.724"/>
      <point x="139.631" y="199.86"/>
      <point x="134.385" y="202.332" type="curve" smooth="yes"/>
      <point x="111.835" y="213.125"/>
      <point x="89.1033" y="222.953"/>
      <point x="75.6574" y="246.588" type="curve" smooth="yes"/>
      <point x="59.2572" y="275.47"/>
      <point x="72.1" y="307.125"/>
      <point x="104.479" y="314.421" type="curve" smooth="yes"/>
      <point x="129.622" y="320.028"/>
      <point x="155.729" y="322.982"/>
      <point x="179.546" y="332.027" type="curve" smooth="yes"/>
      <point x="208.97" y="343.242"/>
      <point x="237.851" y="357.29"/>
      <point x="264.321" y="374.233" type="curve" smooth="yes"/>
      <point x="313.1" y="405.406"/>
      <point x="306.407" y="392.985"/>
      <point x="285.183" y="446.648" type="curve" smooth="yes"/>
      <point x="275.898" y="470.103"/>
      <point x="258.894" y="490.422"/>
      <point x="246.293" y="512.671" type="curve" smooth="yes"/>
      <point x="241.168" y="521.776"/>
      <point x="236.223" y="531.845"/>
      <point x="234.595" y="541.974" type="curve" smooth="yes"/>
      <point x="228.867" y="579.237"/>
      <point x="235.801" y="614.57"/>
      <point x="254.794" y="647.431" type="curve" smooth="yes"/>
      <point x="259.799" y="656.173"/>
      <point x="263.658" y="665.7"/>
    </contour>
    <contour>
      <point x="296.649" y="337.179" type="curve"/>
      <point x="267.345" y="323.83"/>
      <point x="243.157" y="315.687"/>
      <point x="220.185" y="305.557" type="curve" smooth="yes"/>
      <point x="210.176" y="301.095"/>
      <point x="200.529" y="293.739"/>
      <point x="193.655" y="285.358" type="curve" smooth="yes"/>
      <point x="190.459" y="281.499"/>
      <point x="191.605" y="268.295"/>
      <point x="195.343" y="265.461" type="curve" smooth="yes"/>
      <point x="215.241" y="250.568"/>
      <point x="236.404" y="237.243"/>
      <point x="257.628" y="224.159" type="curve" smooth="yes"/>
      <point x="266.371" y="218.732"/>
      <point x="274.33" y="220.36"/>
      <point x="276.621" y="232.118" type="curve" smooth="yes"/>
      <point x="283.073" y="265.22"/>
      <point x="289.655" y="300.46"/>
    </contour>
  </outline>
  <guideline angle="0" x="0" y="753.588"/>
  <guideline angle="0" x="0" y="15.3935"/>
</glyph>
<glyph name="S" format="2">
  <advance width="723"/>
  <unicode hex="0053"/>
  <outline>
    <contour>
      <point x="354.305" y="131.674" type="curve" smooth="yes"/>
      <point x="388.103" y="131.704"/>
      <point x="402.834" y="132.343"/>
      <point x="436.61" y="136.085" type="curve" smooth="yes"/>
      <point x="470.552" y="139.844"/>
      <point x="481.61" y="147.155"/>
      <point x="498.305" y="162.77" type="curve" smooth="yes"/>
      <point x="528.5" y="190.894"/>
      <point x="556.91" y="192.991"/>
      <point x="585.72" y="186.286" type="curve" smooth="yes"/>
      <point x="603.533" y="182.14"/>
      <point x="607.742" y="180.643"/>
      <point x="616.745" y="178.157" type="curve" smooth="yes"/>
      <point x="632.303" y="173.861"/>
      <point x="635.15" y="163.714"/>
      <point x="637.265" y="148.999" type="curve" smooth="yes"/>
      <point x="639.245" y="135.139"/>
      <point x="633.62" y="124.924"/>
      <point x="620.795" y="117.274" type="curve" smooth="yes"/>
      <point x="574.85" y="89.7345"/>
      <point x="524.135" y="75.2895"/>
      <point x="472.88" y="61.9245" type="curve" smooth="yes"/>
      <point x="407.675" y="44.9145"/>
      <point x="341.3" y="42.3945"/>
      <point x="275.06" y="50.2695" type="curve" smooth="yes"/>
      <point x="227.675" y="55.9395"/>
      <point x="187.76" y="78.7095"/>
      <point x="154.505" y="114.214" type="curve" smooth="yes"/>
      <point x="129.035" y="141.439"/>
      <point x="117.38" y="171.004"/>
      <point x="115.805" y="208.624" type="curve" smooth="yes"/>
      <point x="113.51" y="265.189"/>
      <point x="140.96" y="307.129"/>
      <point x="174.53" y="346.594" type="curve" smooth="yes"/>
      <point x="195.365" y="370.984"/>
      <point x="220.385" y="391.819"/>
      <point x="243.29" y="414.409" type="curve" smooth="yes"/>
      <point x="260.795" y="431.689"/>
      <point x="259.805" y="437.269"/>
      <point x="236.315" y="445.189" type="curve" smooth="yes"/>
      <point x="216.2" y="451.939"/>
      <point x="195.545" y="456.934"/>
      <point x="175.07" y="462.649" type="curve" smooth="yes"/>
      <point x="124.13" y="477.004"/>
      <point x="92.4928" y="511.054"/>
      <point x="78.1397" y="560.839" type="curve" smooth="yes"/>
      <point x="75.0898" y="571.418"/>
      <point x="76.7668" y="581.104"/>
      <point x="76.1597" y="591.844" type="curve" smooth="yes"/>
      <point x="75.5297" y="603.184"/>
      <point x="76.7668" y="616.352"/>
      <point x="73.5009" y="635.354" type="curve" smooth="yes"/>
      <point x="70.4128" y="653.322"/>
      <point x="90.1997" y="674.014"/>
      <point x="117.74" y="675.814" type="curve" smooth="yes"/>
      <point x="141.68" y="677.434"/>
      <point x="161.3" y="667.039"/>
      <point x="180.11" y="655.384" type="curve" smooth="yes"/>
      <point x="231.455" y="623.434"/>
      <point x="286.76" y="602.104"/>
      <point x="345.485" y="588.199" type="curve" smooth="yes"/>
      <point x="410.645" y="572.809"/>
      <point x="474.545" y="553.639"/>
      <point x="530.975" y="515.704" type="curve" smooth="yes"/>
      <point x="551.135" y="502.159"/>
      <point x="558.875" y="480.289"/>
      <point x="567.695" y="459.679" type="curve" smooth="yes"/>
      <point x="572.015" y="449.554"/>
      <point x="566.39" y="440.329"/>
      <point x="555.095" y="436.414" type="curve" smooth="yes"/>
      <point x="496.19" y="416.119"/>
      <point x="438.185" y="392.494"/>
      <point x="378.155" y="376.519" type="curve" smooth="yes"/>
      <point x="316.775" y="360.184"/>
      <point x="272.99" y="322.249"/>
      <point x="234.65" y="276.304" type="curve" smooth="yes"/>
      <point x="197.255" y="231.484"/>
      <point x="226.145" y="151.924"/>
      <point x="283.925" y="139.189" type="curve" smooth="yes"/>
      <point x="309.8" y="133.474"/>
      <point x="336.846" y="131.659"/>
    </contour>
    <contour>
      <point x="592.535" y="444.604" type="curve" smooth="yes"/>
      <point x="592.796" y="448.392"/>
      <point x="607.402" y="451.756"/>
      <point x="613.796" y="456.248" type="curve" smooth="yes"/>
      <point x="626.685" y="465.306"/>
      <point x="633.725" y="461.86"/>
      <point x="649.55" y="448.564" type="curve" smooth="yes"/>
      <point x="662.105" y="438.079"/>
      <point x="659.855" y="427.234"/>
      <point x="644.285" y="421.159" type="curve" smooth="yes"/>
      <point x="631.324" y="416.123"/>
      <point x="615.746" y="415.471"/>
      <point x="607.402" y="427.369" type="curve" smooth="yes"/>
      <point x="602.433" y="434.455"/>
      <point x="592.374" y="442.267"/>
    </contour>
  </outline>
  <guideline angle="0" x="0" y="659"/>
  <guideline angle="0" x="0" y="29"/>
</glyph>
<glyph name="T" format="2">
  <advance width="977"/>
  <unicode hex="0054"/>
  <outline>
    <contour>
      <point x="275" y="418.461" type="curve"/>
      <point x="242.824" y="416.956"/>
      <point x="211.4" y="415.162"/>
      <point x="179.919" y="414.236" type="curve" smooth="yes"/>
      <point x="151.852" y="413.368"/>
      <point x="122.917" y="409.317"/>
      <point x="97.6273" y="425.926" type="curve" smooth="yes"/>
      <point x="87.963" y="432.234"/>
      <point x="77.7778" y="440.162"/>
      <point x="72.1643" y="449.884" type="curve" smooth="yes"/>
      <point x="52.6042" y="483.391"/>
      <point x="63.9468" y="528.299"/>
      <point x="94.9074" y="544.271" type="curve" smooth="yes"/>
      <point x="102.257" y="548.032"/>
      <point x="111.169" y="550"/>
      <point x="119.444" y="550.463" type="curve" smooth="yes"/>
      <point x="168.924" y="553.183"/>
      <point x="218.519" y="554.688"/>
      <point x="267.998" y="557.639" type="curve" smooth="yes"/>
      <point x="308.565" y="560.069"/>
      <point x="313.715" y="566.725"/>
      <point x="326.389" y="605.671" type="curve" smooth="yes"/>
      <point x="337.211" y="638.831"/>
      <point x="351.968" y="670.775"/>
      <point x="365.104" y="703.183" type="curve" smooth="yes"/>
      <point x="375.023" y="727.61"/>
      <point x="388.535" y="756.572"/>
      <point x="407.986" y="774.595" type="curve" smooth="yes"/>
      <point x="441.782" y="806.134"/>
      <point x="489.641" y="794.85"/>
      <point x="512.789" y="754.63" type="curve" smooth="yes"/>
      <point x="528.299" y="727.604"/>
      <point x="522.627" y="706.713"/>
      <point x="505.324" y="683.97" type="curve" smooth="yes"/>
      <point x="485.822" y="658.449"/>
      <point x="467.65" y="631.771"/>
      <point x="450.579" y="604.572" type="curve" smooth="yes"/>
      <point x="440.104" y="587.789"/>
      <point x="444.271" y="577.951"/>
      <point x="462.789" y="571.238" type="curve" smooth="yes"/>
      <point x="474.016" y="567.13"/>
      <point x="486.053" y="563.715"/>
      <point x="497.801" y="563.252" type="curve" smooth="yes"/>
      <point x="571.47" y="560.648"/>
      <point x="645.139" y="558.97"/>
      <point x="718.808" y="557.002" type="curve" smooth="yes"/>
      <point x="760.243" y="555.961"/>
      <point x="801.678" y="555.787"/>
      <point x="842.998" y="553.646" type="curve" smooth="yes"/>
      <point x="871.296" y="552.141"/>
      <point x="887.442" y="531.366"/>
      <point x="896.643" y="508.333" type="curve" smooth="yes"/>
      <point x="900.231" y="499.248"/>
      <point x="893.75" y="480.44"/>
      <point x="885.532" y="473.669" type="curve" smooth="yes"/>
      <point x="873.09" y="463.31"/>
      <point x="855.44" y="454.803"/>
      <point x="839.525" y="453.877" type="curve" smooth="yes"/>
      <point x="713.542" y="446.875"/>
      <point x="587.442" y="442.187"/>
      <point x="461.4" y="435.937" type="curve" smooth="yes"/>
      <point x="447.974" y="435.301"/>
      <point x="431.481" y="433.102"/>
      <point x="422.338" y="424.884" type="curve" smooth="yes"/>
      <point x="412.674" y="416.204"/>
      <point x="405.961" y="399.884"/>
      <point x="405.035" y="386.4" type="curve" smooth="yes"/>
      <point x="401.736" y="336.921"/>
      <point x="400.926" y="287.269"/>
      <point x="400.463" y="237.731" type="curve" smooth="yes"/>
      <point x="400.347" y="230.324"/>
      <point x="405.324" y="220.081"/>
      <point x="411.285" y="216.262" type="curve" smooth="yes"/>
      <point x="415.162" y="213.831"/>
      <point x="423.782" y="218.489"/>
      <point x="429.459" y="222.32" type="curve" smooth="yes"/>
      <point x="448.936" y="235.463"/>
      <point x="465.663" y="247.596"/>
      <point x="464.178" y="263.566" type="curve" smooth="yes"/>
      <point x="461.65" y="290.736"/>
      <point x="484.954" y="313.426"/>
      <point x="501.968" y="315.451" type="curve" smooth="yes"/>
      <point x="542.593" y="320.313"/>
      <point x="569.85" y="300.174"/>
      <point x="580.44" y="270.428" type="curve" smooth="yes"/>
      <point x="585.903" y="255.107"/>
      <point x="587.442" y="249.989"/>
      <point x="587.21" y="222.877" type="curve" smooth="yes"/>
      <point x="586.978" y="195.764"/>
      <point x="582.848" y="187.046"/>
      <point x="565.741" y="171.181" type="curve" smooth="yes"/>
      <point x="528.646" y="136.748"/>
      <point x="493.403" y="99.6528"/>
      <point x="452.836" y="69.8495" type="curve" smooth="yes"/>
      <point x="406.539" y="35.8796"/>
      <point x="384.954" y="44.8495"/>
      <point x="343.171" y="79.8611" type="curve" smooth="yes"/>
      <point x="297.975" y="117.708"/>
      <point x="285.475" y="170.428"/>
      <point x="280.44" y="224.537" type="curve" smooth="yes"/>
      <point x="276.563" y="266.146"/>
      <point x="281.019" y="308.507"/>
      <point x="280.44" y="350.521" type="curve" smooth="yes"/>
      <point x="280.15" y="372.685"/>
      <point x="276.968" y="394.85"/>
    </contour>
    <contour>
      <point x="809.549" y="273.495" type="curve" smooth="yes"/>
      <point x="811.62" y="238.89"/>
      <point x="804.098" y="232.846"/>
      <point x="771.412" y="211.69" type="curve" smooth="yes"/>
      <point x="753.624" y="200.176"/>
      <point x="734.028" y="206.076"/>
      <point x="717.303" y="215.741" type="curve" smooth="yes"/>
      <point x="687.905" y="232.639"/>
      <point x="670.37" y="258.434"/>
      <point x="670.37" y="293.171" type="curve" smooth="yes"/>
      <point x="670.37" y="303.829"/>
      <point x="663.715" y="333.854"/>
      <point x="659.375" y="353.993" type="curve" smooth="yes"/>
      <point x="655.208" y="373.322"/>
      <point x="665.374" y="388.303"/>
      <point x="681.887" y="379.919" type="curve" smooth="yes"/>
      <point x="771.326" y="334.508"/>
      <point x="769.734" y="353.183"/>
      <point x="794.965" y="310.706" type="curve" smooth="yes"/>
      <point x="802.951" y="297.338"/>
      <point x="809.045" y="281.906"/>
    </contour>
  </outline>
  <guideline angle="0" x="0" y="792.824"/>
  <guideline angle="0" x="0" y="48.6111"/>
</glyph>
<glyph name="U" format="2">
  <advance width="882"/>
  <unicode hex="0055"/>
  <outline>
    <contour>
      <point x="532.4" y="263.4" type="curve"/>
      <point x="539" y="272.6"/>
      <point x="549.05" y="282.85"/>
      <point x="554.65" y="295.15" type="curve" smooth="yes"/>
      <point x="564.8" y="317.3"/>
      <point x="574.25" y="340.2"/>
      <point x="580.5" y="363.7" type="curve" smooth="yes"/>
      <point x="593.55" y="413.2"/>
      <point x="595.477" y="458.625"/>
      <point x="584.45" y="513.95" type="curve" smooth="yes"/>
      <point x="578.091" y="545.855"/>
      <point x="546.65" y="559.45"/>
      <point x="513.15" y="559.65" type="curve" smooth="yes"/>
      <point x="471.9" y="560"/>
      <point x="432.9" y="549.55"/>
      <point x="395.1" y="534.75" type="curve" smooth="yes"/>
      <point x="364.55" y="522.8"/>
      <point x="334.9" y="508.4"/>
      <point x="305.05" y="494.7" type="curve" smooth="yes"/>
      <point x="286.3" y="486.1"/>
      <point x="275.9" y="470.85"/>
      <point x="267.95" y="451.85" type="curve" smooth="yes"/>
      <point x="244.85" y="396.6"/>
      <point x="244.15" y="337.15"/>
      <point x="232.95" y="279.7" type="curve" smooth="yes"/>
      <point x="227.65" y="252.55"/>
      <point x="221.85" y="223.95"/>
      <point x="208.7" y="200.2" type="curve" smooth="yes"/>
      <point x="191.55" y="169.25"/>
      <point x="163.9" y="165.75"/>
      <point x="136.1" y="190.15" type="curve" smooth="yes"/>
      <point x="114.35" y="209.2"/>
      <point x="103.75" y="236.1"/>
      <point x="96.2" y="262.85" type="curve" smooth="yes"/>
      <point x="80.85" y="316.9"/>
      <point x="76.35" y="372.75"/>
      <point x="77.05" y="428.75" type="curve" smooth="yes"/>
      <point x="77.35" y="454.1"/>
      <point x="80.5" y="479.55"/>
      <point x="84.2" y="504.7" type="curve" smooth="yes"/>
      <point x="88.65" y="535.4"/>
      <point x="114.034" y="556.392"/>
      <point x="135.85" y="567.4" type="curve" smooth="yes"/>
      <point x="143.179" y="571.098"/>
      <point x="155.75" y="570"/>
      <point x="165.05" y="567.55" type="curve" smooth="yes"/>
      <point x="198.25" y="558.8"/>
      <point x="229" y="546.2"/>
      <point x="248.55" y="514.75" type="curve" smooth="yes"/>
      <point x="259" y="497.95"/>
      <point x="270.8" y="497"/>
      <point x="285.8" y="511" type="curve" smooth="yes"/>
      <point x="312.15" y="535.45"/>
      <point x="336.4" y="562.25"/>
      <point x="363.45" y="585.95" type="curve" smooth="yes"/>
      <point x="398.3" y="616.55"/>
      <point x="434.2" y="646.3"/>
      <point x="477" y="665.7" type="curve" smooth="yes"/>
      <point x="506.2" y="678.9"/>
      <point x="537.75" y="677.6"/>
      <point x="568.45" y="676.05" type="curve" smooth="yes"/>
      <point x="658.68" y="671.468"/>
      <point x="744.156" y="593.468"/>
      <point x="746.85" y="501.25" type="curve" smooth="yes"/>
      <point x="749.4" y="413.3"/>
      <point x="727.6" y="331.3"/>
      <point x="688.9" y="253.05" type="curve" smooth="yes"/>
      <point x="681.85" y="238.75"/>
      <point x="675.015" y="224.295"/>
      <point x="670" y="209.25" type="curve" smooth="yes"/>
      <point x="666.467" y="198.653"/>
      <point x="667.704" y="196.373"/>
      <point x="674.85" y="191.85" type="curve" smooth="yes"/>
      <point x="692.008" y="180.991"/>
      <point x="709.6" y="170.3"/>
      <point x="728.3" y="162.45" type="curve" smooth="yes"/>
      <point x="757.35" y="150.2"/>
      <point x="783.85" y="135.45"/>
      <point x="802.7" y="109.25" type="curve" smooth="yes"/>
      <point x="816.3" y="90.35"/>
      <point x="820.9" y="68.1"/>
      <point x="810.75" y="56.45" type="curve" smooth="yes"/>
      <point x="797.15" y="40.75"/>
      <point x="779.1" y="37.25"/>
      <point x="758.95" y="42" type="curve" smooth="yes"/>
      <point x="705.8" y="54.45"/>
      <point x="655.5" y="74.35"/>
      <point x="606.45" y="97.9" type="curve" smooth="yes"/>
      <point x="592.15" y="104.75"/>
      <point x="577" y="112.25"/>
      <point x="561.7" y="113.75" type="curve" smooth="yes"/>
      <point x="548.75" y="115.05"/>
      <point x="534.9" y="108.6"/>
      <point x="521.65" y="104.75" type="curve" smooth="yes"/>
      <point x="491.15" y="95.8"/>
      <point x="461.25" y="83.85"/>
      <point x="430.15" y="78.15" type="curve" smooth="yes"/>
      <point x="416.25" y="75.6"/>
      <point x="397.65" y="81.7"/>
      <point x="385.4" y="90.05" type="curve" smooth="yes"/>
      <point x="357.95" y="108.75"/>
      <point x="333.3" y="131.4"/>
      <point x="314.8" y="159.75" type="curve" smooth="yes"/>
      <point x="300.3" y="181.9"/>
      <point x="305" y="228.2"/>
      <point x="325.4" y="252.75" type="curve" smooth="yes"/>
      <point x="347.65" y="279.55"/>
      <point x="377" y="296.9"/>
      <point x="408.5" y="310.15" type="curve" smooth="yes"/>
      <point x="425.7" y="317.45"/>
      <point x="443.8" y="316.15"/>
      <point x="454.622" y="306.801" type="curve" smooth="yes"/>
      <point x="461.8" y="300.6"/>
      <point x="464.5" y="298.2"/>
      <point x="480.765" y="289.777" type="curve" smooth="yes"/>
      <point x="488.25" y="285.9"/>
      <point x="509" y="275.4"/>
    </contour>
    <contour>
      <point x="436.6" y="214.8" type="curve" smooth="yes"/>
      <point x="426.815" y="214.094"/>
      <point x="418.7" y="205.75"/>
      <point x="411.85" y="199.1" type="curve" smooth="yes"/>
      <point x="404.5" y="191.95"/>
      <point x="399.2" y="182.55"/>
      <point x="393.95" y="173.5" type="curve" smooth="yes"/>
      <point x="383.05" y="154.75"/>
      <point x="389.8" y="142.85"/>
      <point x="411.85" y="145.85" type="curve" smooth="yes"/>
      <point x="426.45" y="147.85"/>
      <point x="440.45" y="155.9"/>
      <point x="454.1" y="162.6" type="curve" smooth="yes"/>
      <point x="463.45" y="167.25"/>
      <point x="472.6" y="174.15"/>
      <point x="470.05" y="186.75" type="curve" smooth="yes"/>
      <point x="467.15" y="201.05"/>
      <point x="453.491" y="216.019"/>
    </contour>
  </outline>
  <guideline angle="0" x="0" y="677"/>
  <guideline angle="0" x="0" y="40"/>
</glyph>
<glyph name="V" format="2">
  <advance width="656"/>
  <unicode hex="0056"/>
  <outline>
    <contour>
      <point x="448.918" y="525.916" type="curve" smooth="yes"/>
      <point x="430.71" y="513.81"/>
      <point x="405.316" y="500.994"/>
      <point x="399.479" y="495.718" type="curve" smooth="yes"/>
      <point x="372.28" y="470.833"/>
      <point x="350.405" y="482.292"/>
      <point x="327.604" y="507.292" type="curve" smooth="yes"/>
      <point x="314.583" y="521.586"/>
      <point x="304.109" y="538.715"/>
      <point x="295.081" y="555.961" type="curve" smooth="yes"/>
      <point x="286.285" y="572.859"/>
      <point x="279.98" y="589.753"/>
      <point x="282.156" y="603.54" type="curve" smooth="yes"/>
      <point x="284.385" y="617.653"/>
      <point x="287.095" y="622.318"/>
      <point x="285.326" y="642.064" type="curve" smooth="yes"/>
      <point x="283.985" y="657.04"/>
      <point x="303.299" y="670.949"/>
      <point x="327.662" y="687.326" type="curve" smooth="yes"/>
      <point x="352.431" y="703.935"/>
      <point x="369.445" y="704.919"/>
      <point x="391.551" y="684.722" type="curve" smooth="yes"/>
      <point x="427.199" y="652.257"/>
      <point x="455.146" y="616.943"/>
      <point x="455.361" y="596.147" type="curve" smooth="yes"/>
      <point x="456.003" y="533.899"/>
      <point x="455.179" y="530.078"/>
    </contour>
    <contour>
      <point x="329.742" y="83.3431" type="curve" smooth="yes"/>
      <point x="299.26" y="83.515"/>
      <point x="273.727" y="87.963"/>
      <point x="251.505" y="111.632" type="curve" smooth="yes"/>
      <point x="227.315" y="137.5"/>
      <point x="198.438" y="159.317"/>
      <point x="176.389" y="186.69" type="curve" smooth="yes"/>
      <point x="160.185" y="206.829"/>
      <point x="150.752" y="232.697"/>
      <point x="139.931" y="256.713" type="curve" smooth="yes"/>
      <point x="125.694" y="288.368"/>
      <point x="114.815" y="321.644"/>
      <point x="99.2477" y="352.546" type="curve" smooth="yes"/>
      <point x="74.4213" y="401.968"/>
      <point x="72.9167" y="453.762"/>
      <point x="81.3658" y="506.076" type="curve" smooth="yes"/>
      <point x="86.5741" y="538.657"/>
      <point x="141.435" y="552.546"/>
      <point x="175.058" y="532.523" type="curve" smooth="yes"/>
      <point x="213.31" y="509.722"/>
      <point x="233.681" y="472.106"/>
      <point x="256.25" y="436.111" type="curve" smooth="yes"/>
      <point x="287.963" y="385.185"/>
      <point x="319.618" y="334.144"/>
      <point x="352.604" y="284.086" type="curve" smooth="yes"/>
      <point x="377.025" y="247.106"/>
      <point x="398.727" y="209.317"/>
      <point x="408.391" y="165.509" type="curve" smooth="yes"/>
      <point x="412.97" y="144.96"/>
      <point x="405.363" y="125.549"/>
      <point x="397.687" y="110.491" type="curve" smooth="yes"/>
      <point x="389.844" y="95.1023"/>
      <point x="381.816" y="84.2896"/>
      <point x="375.947" y="84.2023" type="curve" smooth="yes"/>
      <point x="340.856" y="83.6805"/>
      <point x="335.702" y="83.3094"/>
    </contour>
    <contour>
      <point x="461.806" y="421.412" type="curve" smooth="yes"/>
      <point x="462.442" y="461.169"/>
      <point x="480.845" y="479.34"/>
      <point x="519.676" y="478.704" type="curve" smooth="yes"/>
      <point x="559.954" y="477.951"/>
      <point x="582.581" y="452.373"/>
      <point x="581.944" y="408.391" type="curve" smooth="yes"/>
      <point x="581.655" y="387.326"/>
      <point x="539.913" y="350.983"/>
      <point x="520.114" y="357.7" type="curve" smooth="yes"/>
      <point x="500.315" y="364.417"/>
      <point x="480.947" y="365.834"/>
      <point x="471.574" y="379.581" type="curve" smooth="yes"/>
      <point x="465.332" y="388.737"/>
      <point x="461.597" y="407.277"/>
    </contour>
  </outline>
</glyph>
<glyph name="Y" format="2">
  <advance width="621"/>
  <unicode hex="0059"/>
  <outline>
    <contour>
      <point x="146.55" y="688.95" type="curve" smooth="yes"/>
      <point x="165.599" y="688.656"/>
      <point x="181.35" y="681.9"/>
      <point x="196.45" y="670.4" type="curve" smooth="yes"/>
      <point x="217.6" y="654.15"/>
      <point x="214.65" y="630.5"/>
      <point x="197.3" y="612.9" type="curve" smooth="yes"/>
      <point x="186" y="601.4"/>
      <point x="173.251" y="591.149"/>
      <point x="157.927" y="570.986" type="curve" smooth="yes"/>
      <point x="154.447" y="566.407"/>
      <point x="153.615" y="566.352"/>
      <point x="153.819" y="561.605" type="curve" smooth="yes"/>
      <point x="157.205" y="482.457"/>
      <point x="162.55" y="414.65"/>
      <point x="163.9" y="346.75" type="curve" smooth="yes"/>
      <point x="164.3" y="325.4"/>
      <point x="155.75" y="303.5"/>
      <point x="149.05" y="282.55" type="curve" smooth="yes"/>
      <point x="146.25" y="273.65"/>
      <point x="138.3" y="266.8"/>
      <point x="126.15" y="267.35" type="curve" smooth="yes"/>
      <point x="113.95" y="267.9"/>
      <point x="112.5" y="277.1"/>
      <point x="109.55" y="284.9" type="curve" smooth="yes"/>
      <point x="91.95" y="330.95"/>
      <point x="84.9" y="377.95"/>
      <point x="89.15" y="427.75" type="curve" smooth="yes"/>
      <point x="92.05" y="462"/>
      <point x="88.8" y="497.15"/>
      <point x="84.45" y="531.45" type="curve" smooth="yes"/>
      <point x="82.6" y="546.35"/>
      <point x="72.65" y="561.2"/>
      <point x="63.7" y="574.2" type="curve" smooth="yes"/>
      <point x="45.4" y="600.8"/>
      <point x="44.65" y="634.95"/>
      <point x="76.45" y="656.6" type="curve" smooth="yes"/>
      <point x="82.9542" y="661.155" type="line" smooth="yes"/>
      <point x="102.306" y="675.005"/>
      <point x="120.526" y="689.351"/>
    </contour>
    <contour>
      <point x="156.2" y="233" type="curve" smooth="yes"/>
      <point x="164.3" y="254.05"/>
      <point x="185.8" y="263.4"/>
      <point x="206.75" y="267.95" type="curve" smooth="yes"/>
      <point x="235.5" y="274.2"/>
      <point x="264.651" y="279.407"/>
      <point x="294.6" y="273.35" type="curve" smooth="yes"/>
      <point x="304.676" y="271.312"/>
      <point x="307.073" y="271.172"/>
      <point x="309.95" y="283.5" type="curve" smooth="yes"/>
      <point x="315.91" y="309.041"/>
      <point x="321.95" y="335"/>
      <point x="323.15" y="361.1" type="curve" smooth="yes"/>
      <point x="324.3" y="385.7"/>
      <point x="320.2" y="410.65"/>
      <point x="317.1" y="435.35" type="curve" smooth="yes"/>
      <point x="314.15" y="459"/>
      <point x="298.05" y="468.4"/>
      <point x="276" y="459.4" type="curve" smooth="yes"/>
      <point x="266.55" y="455.55"/>
      <point x="257.9" y="449.4"/>
      <point x="249.6" y="443.35" type="curve" smooth="yes"/>
      <point x="240.05" y="436.4"/>
      <point x="230.9" y="429.35"/>
      <point x="218.8" y="437.5" type="curve" smooth="yes"/>
      <point x="206.8" y="445.6"/>
      <point x="198.65" y="465.1"/>
      <point x="205.15" y="477.1" type="curve" smooth="yes"/>
      <point x="213" y="491.45"/>
      <point x="222.9" y="505.05"/>
      <point x="233.9" y="517.15" type="curve" smooth="yes"/>
      <point x="250.65" y="535.5"/>
      <point x="269.2" y="552.3"/>
      <point x="286.85" y="569.8" type="curve" smooth="yes"/>
      <point x="302.4" y="585.3"/>
      <point x="321.488" y="592.256"/>
      <point x="343.05" y="592.5" type="curve" smooth="yes"/>
      <point x="390.669" y="593.04"/>
      <point x="399.885" y="594.013"/>
      <point x="405.1" y="595.5" type="curve" smooth="yes"/>
      <point x="422.004" y="600.321"/>
      <point x="433.5" y="575.4"/>
      <point x="423.05" y="556.4" type="curve" smooth="yes"/>
      <point x="415.75" y="543.05"/>
      <point x="406.659" y="532.076"/>
      <point x="393.631" y="523.749" type="curve" smooth="yes"/>
      <point x="384.699" y="518.04"/>
      <point x="384.235" y="518.789"/>
      <point x="384.15" y="507.18" type="curve" smooth="yes"/>
      <point x="383.52" y="420.88"/>
      <point x="383.6" y="326.8"/>
      <point x="384.25" y="240.55" type="curve" smooth="yes"/>
      <point x="384.3" y="233.8"/>
      <point x="388.149" y="229"/>
      <point x="393.395" y="223.279" type="curve" smooth="yes"/>
      <point x="396.596" y="219.787"/>
      <point x="398.352" y="216.88"/>
      <point x="403.45" y="209.05" type="curve" smooth="yes"/>
      <point x="427.017" y="172.858"/>
      <point x="462.4" y="152.85"/>
      <point x="501.2" y="138.15" type="curve" smooth="yes"/>
      <point x="510.7" y="134.5"/>
      <point x="521.8" y="135.851"/>
      <point x="541.958" y="138.73" type="curve" smooth="yes"/>
      <point x="556.45" y="140.801"/>
      <point x="569.9" y="130.85"/>
      <point x="567.8" y="106.3" type="curve" smooth="yes"/>
      <point x="566.6" y="92"/>
      <point x="562.65" y="76.05"/>
      <point x="554.65" y="64.5" type="curve" smooth="yes"/>
      <point x="532.75" y="33.1"/>
      <point x="508.95" y="31.2"/>
      <point x="480.3" y="56.6" type="curve" smooth="yes"/>
      <point x="462.85" y="72.1"/>
      <point x="446.7" y="89.1"/>
      <point x="429.65" y="105.15" type="curve" smooth="yes"/>
      <point x="413.35" y="120.5"/>
      <point x="396.15" y="135.25"/>
      <point x="372.95" y="137.85" type="curve" smooth="yes"/>
      <point x="365.95" y="138.65"/>
      <point x="356.35" y="135.4"/>
      <point x="351.25" y="130.6" type="curve" smooth="yes"/>
      <point x="336.55" y="116.7"/>
      <point x="321.85" y="102.25"/>
      <point x="310.3" y="85.85" type="curve" smooth="yes"/>
      <point x="297.95" y="68.35"/>
      <point x="279.9" y="60.3"/>
      <point x="261.9" y="57.55" type="curve" smooth="yes"/>
      <point x="228.95" y="52.45"/>
      <point x="196.55" y="59.4"/>
      <point x="168.6" y="79.25" type="curve" smooth="yes"/>
      <point x="144.4" y="96.45"/>
      <point x="136.64" y="121.228"/>
      <point x="138.068" y="164.802" type="curve" smooth="yes"/>
      <point x="138.937" y="191.326"/>
      <point x="151.862" y="221.837"/>
    </contour>
    <contour>
      <point x="194.7" y="199.3" type="curve" smooth="yes"/>
      <point x="182.392" y="179.045"/>
      <point x="185.1" y="161.1"/>
      <point x="195.205" y="151.07" type="curve" smooth="yes"/>
      <point x="218.6" y="127.85"/>
      <point x="233.85" y="126.1"/>
      <point x="255.15" y="139.05" type="curve" smooth="yes"/>
      <point x="261.75" y="143"/>
      <point x="268.4" y="147.55"/>
      <point x="273.6" y="153.2" type="curve" smooth="yes"/>
      <point x="287.25" y="168.15"/>
      <point x="295.15" y="186.95"/>
      <point x="287.8" y="205.9" type="curve" smooth="yes"/>
      <point x="281" y="223.5"/>
      <point x="262.468" y="223.903"/>
      <point x="244.839" y="224.126" type="curve" smooth="yes"/>
      <point x="218.806" y="224.455"/>
      <point x="213.546" y="230.315"/>
    </contour>
  </outline>
  <guideline angle="0" x="0" y="39"/>
  <guideline angle="0" x="0" y="689"/>
</glyph>
<glyph name="Z" format="2">
  <advance width="802"/>
  <unicode hex="005A"/>
  <outline>
    <contour>
      <point x="327.1" y="47.6" type="curve" smooth="yes"/>
      <point x="285.101" y="47.2645"/>
      <point x="245.65" y="55.55"/>
      <point x="211.55" y="82.3" type="curve" smooth="yes"/>
      <point x="194.25" y="95.9"/>
      <point x="173.6" y="97.15"/>
      <point x="152.25" y="97.5" type="curve" smooth="yes"/>
      <point x="132.8" y="97.75"/>
      <point x="113.25" y="100.7"/>
      <point x="94" y="104" type="curve" smooth="yes"/>
      <point x="69.1" y="108.3"/>
      <point x="62.5" y="129.2"/>
      <point x="57.95" y="149.5" type="curve" smooth="yes"/>
      <point x="54.15" y="166.8"/>
      <point x="61.2" y="179.85"/>
      <point x="79.15" y="186.75" type="curve" smooth="yes"/>
      <point x="103.2" y="195.9"/>
      <point x="128.2" y="206.75"/>
      <point x="153.3" y="208.25" type="curve" smooth="yes"/>
      <point x="223.65" y="212.6"/>
      <point x="271.1" y="253.5"/>
      <point x="314.9" y="301.5" type="curve" smooth="yes"/>
      <point x="328.35" y="316.25"/>
      <point x="339" y="333.75"/>
      <point x="349.6" y="350.8" type="curve" smooth="yes"/>
      <point x="354.65" y="358.95"/>
      <point x="354.4" y="367.85"/>
      <point x="342.3" y="371.85" type="curve" smooth="yes"/>
      <point x="276.65" y="393.4"/>
      <point x="221.15" y="432.95"/>
      <point x="165.75" y="472.4" type="curve" smooth="yes"/>
      <point x="143.5" y="488.3"/>
      <point x="123.15" y="507"/>
      <point x="102.85" y="525.35" type="curve" smooth="yes"/>
      <point x="96.95" y="530.7"/>
      <point x="93.95" y="539.3"/>
      <point x="89.9" y="546.55" type="curve" smooth="yes"/>
      <point x="78.15" y="567.4"/>
      <point x="81.85" y="582.65"/>
      <point x="102.1" y="595.6" type="curve" smooth="yes"/>
      <point x="109.55" y="600.35"/>
      <point x="117" y="605.35"/>
      <point x="125.1" y="608.7" type="curve" smooth="yes"/>
      <point x="157.6" y="622.15"/>
      <point x="180.5" y="646.95"/>
      <point x="202.8" y="672.65" type="curve" smooth="yes"/>
      <point x="204.15" y="674.2"/>
      <point x="206.349" y="676.539"/>
      <point x="212.277" y="681.867" type="curve" smooth="yes"/>
      <point x="218.322" y="687.3"/>
      <point x="228.525" y="695.779"/>
      <point x="236.388" y="692.677" type="curve" smooth="yes"/>
      <point x="245.484" y="689.09"/>
      <point x="253" y="671.35"/>
      <point x="254.15" y="658.3" type="curve" smooth="yes"/>
      <point x="256.15" y="636.2"/>
      <point x="253.1" y="613.6"/>
      <point x="251.1" y="591.25" type="curve" smooth="yes"/>
      <point x="250" y="579.15"/>
      <point x="254.8" y="571.7"/>
      <point x="264.65" y="565.7" type="curve" smooth="yes"/>
      <point x="293.45" y="548.1"/>
      <point x="322.2" y="530.5"/>
      <point x="350.6" y="512.25" type="curve" smooth="yes"/>
      <point x="366.9" y="501.75"/>
      <point x="383.9" y="496.15"/>
      <point x="403.5" y="496.6" type="curve" smooth="yes"/>
      <point x="429.05" y="497.2"/>
      <point x="454.6" y="496.15"/>
      <point x="480.2" y="495.9" type="curve" smooth="yes"/>
      <point x="504.6" y="495.65"/>
      <point x="526.25" y="488.45"/>
      <point x="543.85" y="470.95" type="curve" smooth="yes"/>
      <point x="555.35" y="459.6"/>
      <point x="567.6" y="448.95"/>
      <point x="578" y="436.7" type="curve" smooth="yes"/>
      <point x="599.15" y="411.85"/>
      <point x="592.35" y="390.6"/>
      <point x="560.9" y="380.75" type="curve" smooth="yes"/>
      <point x="553.45" y="378.45"/>
      <point x="545.95" y="376"/>
      <point x="538.25" y="374.8" type="curve" smooth="yes"/>
      <point x="510.65" y="370.45"/>
      <point x="489.45" y="356.5"/>
      <point x="471.55" y="335.15" type="curve" smooth="yes"/>
      <point x="444.4" y="302.75"/>
      <point x="415.6" y="272.45"/>
      <point x="375.4" y="254.8" type="curve" smooth="yes"/>
      <point x="349.9" y="243.6"/>
      <point x="329.711" y="223.773"/>
      <point x="309.108" y="198.13" type="curve" smooth="yes"/>
      <point x="306.411" y="194.773"/>
      <point x="306.098" y="193.974"/>
      <point x="309.895" y="189.583" type="curve" smooth="yes"/>
      <point x="334.25" y="161.416"/>
      <point x="359.2" y="145.55"/>
      <point x="385.55" y="130.65" type="curve" smooth="yes"/>
      <point x="394.4" y="125.6"/>
      <point x="403.15" y="119"/>
      <point x="409.5" y="111.15" type="curve" smooth="yes"/>
      <point x="425.05" y="91.9"/>
      <point x="423.453" y="75.278"/>
      <point x="402.079" y="62.6256" type="curve" smooth="yes"/>
      <point x="392.781" y="57.1218"/>
      <point x="375.373" y="47.9856"/>
    </contour>
    <contour>
      <point x="579.482" y="108.599" type="curve" smooth="yes"/>
      <point x="568.65" y="113.3"/>
      <point x="563.2" y="129.2"/>
      <point x="568.2" y="149.9" type="curve" smooth="yes"/>
      <point x="579.3" y="196"/>
      <point x="605.55" y="227"/>
      <point x="654.3" y="234.95" type="curve" smooth="yes"/>
      <point x="660.25" y="235.9"/>
      <point x="667.4" y="236.8"/>
      <point x="672.55" y="234.45" type="curve" smooth="yes"/>
      <point x="704.3" y="220.15"/>
      <point x="728.95" y="198.1"/>
      <point x="743.6" y="165.7" type="curve" smooth="yes"/>
      <point x="748.85" y="154.1"/>
      <point x="745.55" y="144.95"/>
      <point x="738.2" y="135.65" type="curve" smooth="yes"/>
      <point x="715.9" y="107.45"/>
      <point x="687" y="94.15"/>
      <point x="651.1" y="95.6" type="curve" smooth="yes"/>
      <point x="646.95" y="95.75"/>
      <point x="637.799" y="96.6502"/>
      <point x="629.306" y="97.0819" type="curve" smooth="yes"/>
      <point x="621.166" y="97.4957"/>
      <point x="595.471" y="101.659"/>
    </contour>
  </outline>
  <guideline angle="0" x="0" y="696.2"/>
  <guideline angle="0" x="0" y="43.2"/>
</glyph>
<glyph name="a" format="2">
  <advance width="906"/>
  <unicode hex="0061"/>
  <outline>
    <contour>
      <point x="504.63" y="543.981" type="curve"/>
      <point x="445.602" y="543.981"/>
      <point x="408.565" y="571.759"/>
      <point x="380.787" y="611.111" type="curve" smooth="yes"/>
      <point x="356.481" y="645.833"/>
      <point x="366.898" y="688.657"/>
      <point x="402.778" y="707.176" type="curve"/>
      <point x="417.824" y="715.278"/>
      <point x="440.972" y="714.12"/>
      <point x="456.019" y="708.333" type="curve"/>
      <point x="503.472" y="688.657"/>
      <point x="533.565" y="652.778"/>
      <point x="545.139" y="601.852" type="curve" smooth="yes"/>
      <point x="553.241" y="567.13"/>
      <point x="545.139" y="540.509"/>
    </contour>
    <contour>
      <point x="445.239" y="0" type="curve" smooth="yes"/>
      <point x="378.472" y="0"/>
      <point x="314.815" y="16.2037"/>
      <point x="259.259" y="49.7685" type="curve" smooth="yes"/>
      <point x="217.593" y="75.2315"/>
      <point x="185.185" y="108.796"/>
      <point x="158.565" y="149.306" type="curve" smooth="yes"/>
      <point x="149.306" y="163.194"/>
      <point x="144.676" y="184.028"/>
      <point x="143.519" y="202.546" type="curve" smooth="yes"/>
      <point x="140.046" y="253.472"/>
      <point x="138.889" y="304.398"/>
      <point x="138.889" y="355.324" type="curve"/>
      <point x="138.889" y="358.796" type="line"/>
      <point x="140.046" y="393.519"/>
      <point x="141.204" y="393.519"/>
      <point x="105.324" y="396.991" type="curve"/>
      <point x="81.0185" y="400.463"/>
      <point x="59.0278" y="407.407"/>
      <point x="48.6111" y="431.713" type="curve" smooth="yes"/>
      <point x="41.6667" y="447.917"/>
      <point x="40.5093" y="461.806"/>
      <point x="55.5556" y="472.222" type="curve"/>
      <point x="76.3889" y="487.269"/>
      <point x="97.2222" y="503.472"/>
      <point x="119.213" y="515.046" type="curve"/>
      <point x="142.361" y="527.778"/>
      <point x="166.667" y="538.194"/>
      <point x="193.287" y="546.296" type="curve"/>
      <point x="214.12" y="553.241"/>
      <point x="236.111" y="554.398"/>
      <point x="258.102" y="553.241" type="curve"/>
      <point x="267.361" y="553.241"/>
      <point x="280.093" y="546.296"/>
      <point x="284.722" y="538.194" type="curve" smooth="yes"/>
      <point x="293.981" y="521.991"/>
      <point x="300.926" y="505.787"/>
      <point x="305.556" y="488.426" type="curve"/>
      <point x="307.87" y="482.639"/>
      <point x="303.241" y="473.38"/>
      <point x="299.769" y="467.593" type="curve"/>
      <point x="250" y="408.565"/>
      <point x="251.157" y="337.963"/>
      <point x="258.102" y="268.519" type="curve" smooth="yes"/>
      <point x="265.046" y="209.491"/>
      <point x="290.509" y="168.981"/>
      <point x="361.111" y="149.306" type="curve" smooth="yes"/>
      <point x="408.565" y="135.417"/>
      <point x="454.861" y="140.046"/>
      <point x="501.157" y="158.565" type="curve"/>
      <point x="575.231" y="186.343"/>
      <point x="622.685" y="240.741"/>
      <point x="659.722" y="307.87" type="curve" smooth="yes"/>
      <point x="693.287" y="369.213"/>
      <point x="699.074" y="435.185"/>
      <point x="702.546" y="501.157" type="curve" smooth="yes"/>
      <point x="703.704" y="533.565"/>
      <point x="700.231" y="562.5"/>
      <point x="682.87" y="590.278" type="curve"/>
      <point x="664.352" y="618.056"/>
      <point x="684.028" y="670.139"/>
      <point x="730.324" y="671.296" type="curve"/>
      <point x="745.37" y="672.454"/>
      <point x="761.574" y="672.454"/>
      <point x="776.62" y="671.296" type="curve"/>
      <point x="813.657" y="670.139"/>
      <point x="847.222" y="637.731"/>
      <point x="849.537" y="600.694" type="curve" smooth="yes"/>
      <point x="850.694" y="577.546"/>
      <point x="849.537" y="557.87"/>
      <point x="822.917" y="548.611" type="curve"/>
      <point x="807.87" y="543.981"/>
      <point x="802.083" y="531.25"/>
      <point x="802.083" y="515.046" type="curve" smooth="yes"/>
      <point x="802.083" y="456.019"/>
      <point x="803.241" y="398.148"/>
      <point x="798.611" y="340.278" type="curve" smooth="yes"/>
      <point x="796.296" y="306.713"/>
      <point x="785.88" y="273.148"/>
      <point x="775.463" y="241.898" type="curve" smooth="yes"/>
      <point x="752.315" y="175.926"/>
      <point x="715.278" y="118.056"/>
      <point x="662.037" y="72.9167" type="curve" smooth="yes"/>
      <point x="606.481" y="25.463"/>
      <point x="528.935" y="0"/>
    </contour>
    <contour>
      <point x="427.083" y="500" type="curve"/>
      <point x="495.37" y="500"/>
      <point x="554.398" y="444.444"/>
      <point x="555.556" y="378.472" type="curve"/>
      <point x="555.556" y="356.481"/>
      <point x="546.296" y="347.222"/>
      <point x="523.148" y="349.537" type="curve"/>
      <point x="459.491" y="354.167"/>
      <point x="408.565" y="384.259"/>
      <point x="371.528" y="436.343" type="curve"/>
      <point x="353.009" y="464.12"/>
      <point x="368.056" y="496.528"/>
      <point x="401.62" y="500" type="curve"/>
      <point x="409.722" y="501.157"/>
      <point x="417.824" y="501.157"/>
    </contour>
  </outline>
</glyph>
<glyph name="d" format="2">
  <advance width="883"/>
  <unicode hex="0064"/>
  <outline>
    <contour>
      <point x="756.794" y="543.632" type="line" smooth="yes"/>
      <point x="800.038" y="506.066"/>
      <point x="800.926" y="503.472"/>
      <point x="804.398" y="495.37" type="curve"/>
      <point x="793.981" y="496.528"/>
      <point x="792.824" y="496.528"/>
      <point x="782.407" y="497.685" type="curve" smooth="yes"/>
      <point x="762.731" y="498.843"/>
      <point x="758.102" y="491.898"/>
      <point x="762.731" y="475.694" type="curve" smooth="yes"/>
      <point x="766.204" y="465.278"/>
      <point x="769.676" y="454.861"/>
      <point x="774.306" y="444.444" type="curve" smooth="yes"/>
      <point x="795.139" y="393.519"/>
      <point x="793.981" y="340.278"/>
      <point x="782.407" y="287.037" type="curve" smooth="yes"/>
      <point x="771.991" y="239.583"/>
      <point x="756.944" y="192.13"/>
      <point x="728.009" y="151.62" type="curve" smooth="yes"/>
      <point x="707.176" y="122.685"/>
      <point x="677.083" y="105.324"/>
      <point x="648.148" y="85.6481" type="curve" smooth="yes"/>
      <point x="613.426" y="62.5"/>
      <point x="574.074" y="46.2963"/>
      <point x="533.565" y="38.1944" type="curve" smooth="yes"/>
      <point x="440.972" y="20.8333"/>
      <point x="348.38" y="16.2037"/>
      <point x="262.731" y="62.5" type="curve" smooth="yes"/>
      <point x="187.5" y="104.167"/>
      <point x="129.63" y="162.037"/>
      <point x="96.0648" y="243.056" type="curve" smooth="yes"/>
      <point x="78.7037" y="282.407"/>
      <point x="69.4444" y="322.917"/>
      <point x="68.287" y="357.639" type="curve" smooth="yes"/>
      <point x="67.1296" y="392.361"/>
      <point x="65.9722" y="406.25"/>
      <point x="72.9167" y="447.917" type="curve" smooth="yes"/>
      <point x="78.7037" y="483.796"/>
      <point x="101.852" y="521.991"/>
      <point x="115.741" y="568.287" type="curve" smooth="yes"/>
      <point x="119.213" y="578.704"/>
      <point x="119.213" y="589.12"/>
      <point x="116.898" y="599.537" type="curve" smooth="yes"/>
      <point x="115.741" y="608.796"/>
      <point x="113.426" y="616.898"/>
      <point x="109.954" y="625" type="curve" smooth="yes"/>
      <point x="103.009" y="642.361"/>
      <point x="107.639" y="657.407"/>
      <point x="119.213" y="670.139" type="curve" smooth="yes"/>
      <point x="149.306" y="706.019"/>
      <point x="182.87" y="739.583"/>
      <point x="225.694" y="761.574" type="curve" smooth="yes"/>
      <point x="252.315" y="775.463"/>
      <point x="281.25" y="776.62"/>
      <point x="310.185" y="771.991" type="curve" smooth="yes"/>
      <point x="354.167" y="766.204"/>
      <point x="384.259" y="737.269"/>
      <point x="410.88" y="707.176" type="curve" smooth="yes"/>
      <point x="429.398" y="686.343"/>
      <point x="431.713" y="656.25"/>
      <point x="416.667" y="628.472" type="curve" smooth="yes"/>
      <point x="399.306" y="597.222"/>
      <point x="381.944" y="564.815"/>
      <point x="365.741" y="533.565" type="curve" smooth="yes"/>
      <point x="354.167" y="511.574"/>
      <point x="368.056" y="472.222"/>
      <point x="391.204" y="465.278" type="curve" smooth="yes"/>
      <point x="428.241" y="453.704"/>
      <point x="458.333" y="431.713"/>
      <point x="487.269" y="407.407" type="curve" smooth="yes"/>
      <point x="502.315" y="393.519"/>
      <point x="508.102" y="377.315"/>
      <point x="501.157" y="358.796" type="curve" smooth="yes"/>
      <point x="493.056" y="340.278"/>
      <point x="476.852" y="333.333"/>
      <point x="458.333" y="332.176" type="curve"/>
      <point x="444.444" y="332.176"/>
      <point x="430.556" y="335.648"/>
      <point x="416.667" y="336.806" type="curve" smooth="yes"/>
      <point x="385.417" y="339.12"/>
      <point x="354.167" y="342.593"/>
      <point x="322.917" y="341.435" type="curve" smooth="yes"/>
      <point x="302.083" y="340.278"/>
      <point x="281.25" y="332.176"/>
      <point x="274.306" y="307.87" type="curve" smooth="yes"/>
      <point x="267.361" y="284.722"/>
      <point x="271.991" y="261.574"/>
      <point x="289.352" y="243.056" type="curve" smooth="yes"/>
      <point x="318.287" y="214.12"/>
      <point x="354.167" y="196.759"/>
      <point x="393.519" y="185.185" type="curve" smooth="yes"/>
      <point x="489.583" y="156.25"/>
      <point x="577.546" y="192.13"/>
      <point x="634.259" y="276.62" type="curve" smooth="yes"/>
      <point x="673.611" y="336.806"/>
      <point x="663.194" y="395.833"/>
      <point x="648.148" y="457.176" type="curve" smooth="yes"/>
      <point x="631.944" y="524.306"/>
      <point x="591.435" y="575.231"/>
      <point x="532.407" y="611.111" type="curve"/>
      <point x="509.259" y="623.843"/>
      <point x="488.426" y="638.889"/>
      <point x="467.593" y="653.935" type="curve" smooth="yes"/>
      <point x="462.963" y="657.407"/>
      <point x="458.333" y="665.509"/>
      <point x="459.491" y="670.139" type="curve"/>
      <point x="459.491" y="673.611"/>
      <point x="468.75" y="677.083"/>
      <point x="473.38" y="678.241" type="curve" smooth="yes"/>
      <point x="549.769" y="689.815"/>
      <point x="615.491" y="666.381"/>
      <point x="672.454" y="616.898" type="curve" smooth="yes"/>
    </contour>
  </outline>
  <guideline angle="0" x="0" y="25.463"/>
  <guideline angle="0" x="0" y="774.306"/>
</glyph>
<glyph name="e" format="2">
  <advance width="605"/>
  <unicode hex="0065"/>
  <outline>
    <contour>
      <point x="179" y="530" type="curve" smooth="yes"/>
      <point x="191" y="530"/>
      <point x="198" y="536"/>
      <point x="202" y="548" type="curve" smooth="yes"/>
      <point x="208" y="568"/>
      <point x="212" y="588"/>
      <point x="222" y="605" type="curve" smooth="yes"/>
      <point x="233" y="624"/>
      <point x="246" y="641"/>
      <point x="263" y="654" type="curve" smooth="yes"/>
      <point x="272" y="662"/>
      <point x="289" y="661"/>
      <point x="303" y="661" type="curve" smooth="yes"/>
      <point x="330" y="661"/>
      <point x="352" y="646"/>
      <point x="374" y="633" type="curve" smooth="yes"/>
      <point x="403" y="615"/>
      <point x="418" y="607"/>
      <point x="458" y="595" type="curve" smooth="yes"/>
      <point x="501" y="582"/>
      <point x="525" y="540"/>
      <point x="519" y="491" type="curve"/>
      <point x="516" y="475"/>
      <point x="501" y="461"/>
      <point x="482" y="459" type="curve" smooth="yes"/>
      <point x="454" y="456"/>
      <point x="427" y="456"/>
      <point x="399" y="453" type="curve"/>
      <point x="368" y="449"/>
      <point x="336" y="445"/>
      <point x="305" y="439" type="curve"/>
      <point x="298" y="438"/>
      <point x="289" y="429"/>
      <point x="289" y="422" type="curve" smooth="yes"/>
      <point x="289" y="415"/>
      <point x="298" y="407"/>
      <point x="305" y="405" type="curve"/>
      <point x="333" y="398"/>
      <point x="362" y="395"/>
      <point x="391" y="389" type="curve"/>
      <point x="442" y="377"/>
      <point x="481" y="345"/>
      <point x="518" y="309" type="curve" smooth="yes"/>
      <point x="551" y="277"/>
      <point x="561" y="239"/>
      <point x="558" y="208" type="curve" smooth="yes"/>
      <point x="556" y="189"/>
      <point x="556" y="185"/>
      <point x="556" y="181" type="curve" smooth="yes"/>
      <point x="559" y="150"/>
      <point x="547" y="124"/>
      <point x="526" y="100" type="curve"/>
      <point x="489" y="61"/>
      <point x="449" y="27"/>
      <point x="395" y="15" type="curve" smooth="yes"/>
      <point x="349" y="5"/>
      <point x="300" y="0"/>
      <point x="251" y="7" type="curve" smooth="yes"/>
      <point x="235" y="9"/>
      <point x="220" y="11"/>
      <point x="204" y="15" type="curve"/>
      <point x="163" y="23"/>
      <point x="140" y="52"/>
      <point x="122" y="87" type="curve" smooth="yes"/>
      <point x="119" y="93"/>
      <point x="119" y="101"/>
      <point x="120" y="108" type="curve" smooth="yes"/>
      <point x="121" y="115"/>
      <point x="137" y="111"/>
      <point x="144" y="108" type="curve" smooth="yes"/>
      <point x="164" y="101"/>
      <point x="182" y="90"/>
      <point x="203" y="86" type="curve" smooth="yes"/>
      <point x="257" y="74"/>
      <point x="311" y="74"/>
      <point x="361" y="100" type="curve" smooth="yes"/>
      <point x="380" y="110"/>
      <point x="398" y="120"/>
      <point x="415" y="133" type="curve"/>
      <point x="441" y="152"/>
      <point x="444" y="180"/>
      <point x="444" y="210" type="curve" smooth="yes"/>
      <point x="444" y="223"/>
      <point x="442" y="236"/>
      <point x="443" y="250" type="curve"/>
      <point x="443" y="268"/>
      <point x="437" y="281"/>
      <point x="422" y="291" type="curve"/>
      <point x="392" y="312"/>
      <point x="362" y="327"/>
      <point x="325" y="330" type="curve" smooth="yes"/>
      <point x="299" y="332"/>
      <point x="278" y="325"/>
      <point x="258" y="310" type="curve"/>
      <point x="251" y="306"/>
      <point x="245" y="301"/>
      <point x="239" y="296" type="curve"/>
      <point x="221" y="279"/>
      <point x="199" y="280"/>
      <point x="178" y="296" type="curve"/>
      <point x="163" y="307"/>
      <point x="146" y="319"/>
      <point x="146" y="341" type="curve"/>
      <point x="145" y="353"/>
      <point x="149" y="361"/>
      <point x="159" y="367" type="curve" smooth="yes"/>
      <point x="190" y="386" type="line"/>
      <point x="201" y="392"/>
      <point x="208" y="402"/>
      <point x="203" y="413" type="curve" smooth="yes"/>
      <point x="200" y="419"/>
      <point x="189" y="424"/>
      <point x="180" y="422" type="curve" smooth="yes"/>
      <point x="174" y="421"/>
      <point x="168" y="420"/>
      <point x="162" y="419" type="curve"/>
      <point x="116" y="414"/>
      <point x="79" y="432"/>
      <point x="46" y="462" type="curve"/>
      <point x="33" y="475"/>
      <point x="31" y="488"/>
      <point x="37" y="504" type="curve"/>
      <point x="44" y="520"/>
      <point x="57" y="526"/>
      <point x="72" y="527" type="curve" smooth="yes"/>
      <point x="84" y="528"/>
      <point x="84" y="528"/>
      <point x="108" y="529" type="curve"/>
      <point x="115" y="529"/>
      <point x="159" y="530"/>
    </contour>
    <contour>
      <point x="391" y="526" type="curve"/>
      <point x="404" y="525"/>
      <point x="408" y="525"/>
      <point x="416" y="528" type="curve" smooth="yes"/>
      <point x="424" y="531"/>
      <point x="443" y="536"/>
      <point x="439" y="546" type="curve" smooth="yes"/>
      <point x="437" y="551"/>
      <point x="433" y="561"/>
      <point x="427" y="566" type="curve" smooth="yes"/>
      <point x="398" y="589"/>
      <point x="362" y="586"/>
      <point x="335" y="561" type="curve" smooth="yes"/>
      <point x="324" y="551"/>
      <point x="325" y="541"/>
      <point x="339" y="536" type="curve"/>
      <point x="356" y="531"/>
      <point x="373" y="528"/>
    </contour>
    <contour>
      <point x="287" y="224" type="curve"/>
      <point x="302" y="233"/>
      <point x="300" y="237"/>
      <point x="307" y="238" type="curve"/>
      <point x="317" y="240"/>
      <point x="326" y="238"/>
      <point x="335" y="233" type="curve"/>
      <point x="341" y="229"/>
      <point x="349" y="221"/>
      <point x="349" y="214" type="curve" smooth="yes"/>
      <point x="349" y="209"/>
      <point x="340" y="203"/>
      <point x="336" y="200" type="curve" smooth="yes"/>
      <point x="329" y="196"/>
      <point x="324" y="197"/>
      <point x="323" y="199" type="curve" smooth="yes"/>
      <point x="321" y="207"/>
      <point x="303" y="206"/>
      <point x="288" y="217" type="curve"/>
      <point x="287" y="220"/>
      <point x="287" y="221"/>
    </contour>
    <contour>
      <point x="271" y="155" type="line"/>
      <point x="269" y="132"/>
      <point x="255" y="125"/>
      <point x="229" y="133" type="curve"/>
      <point x="211" y="139"/>
      <point x="195" y="166"/>
      <point x="199" y="184" type="curve"/>
      <point x="200" y="189"/>
      <point x="206" y="195"/>
      <point x="210" y="196" type="curve"/>
      <point x="229" y="198"/>
      <point x="249" y="191"/>
      <point x="263" y="177" type="curve" smooth="yes"/>
      <point x="266" y="174"/>
      <point x="268" y="170"/>
      <point x="269" y="165" type="curve"/>
    </contour>
  </outline>
  <guideline angle="0" x="0" y="661"/>
  <guideline angle="0" x="0" y="3"/>
</glyph>
<glyph name="g" format="2">
  <advance width="771"/>
  <unicode hex="0067"/>
  <outline>
    <contour>
      <point x="326.389" y="3.47222" type="line" smooth="yes"/>
      <point x="319.444" y="-3.47222"/>
      <point x="281.25" y="10.4167"/>
      <point x="261.574" y="19.6759" type="curve" smooth="yes"/>
      <point x="250" y="25.463"/>
      <point x="239.583" y="35.8796"/>
      <point x="232.639" y="46.2963" type="curve" smooth="yes"/>
      <point x="204.861" y="84.4907"/>
      <point x="200.231" y="129.63"/>
      <point x="192.13" y="173.611" type="curve" smooth="yes"/>
      <point x="188.657" y="190.972"/>
      <point x="184.028" y="208.333"/>
      <point x="178.241" y="224.537" type="curve" smooth="yes"/>
      <point x="175.926" y="230.324"/>
      <point x="166.667" y="236.111"/>
      <point x="159.722" y="237.269" type="curve" smooth="yes"/>
      <point x="140.046" y="240.741"/>
      <point x="118.056" y="240.741"/>
      <point x="97.2222" y="245.37" type="curve" smooth="yes"/>
      <point x="85.6481" y="248.843"/>
      <point x="75.2315" y="258.102"/>
      <point x="65.9722" y="267.361" type="curve" smooth="yes"/>
      <point x="61.3426" y="271.991"/>
      <point x="74.0741" y="290.509"/>
      <point x="79.8611" y="291.667" type="curve" smooth="yes"/>
      <point x="98.3796" y="295.139"/>
      <point x="115.741" y="297.454"/>
      <point x="134.259" y="302.083" type="curve" smooth="yes"/>
      <point x="171.296" y="310.185"/>
      <point x="180.556" y="321.759"/>
      <point x="182.87" y="359.954" type="curve" smooth="yes"/>
      <point x="185.185" y="396.991"/>
      <point x="187.5" y="435.185"/>
      <point x="193.287" y="472.222" type="curve" smooth="yes"/>
      <point x="195.602" y="484.954"/>
      <point x="204.861" y="498.843"/>
      <point x="214.12" y="508.102" type="curve" smooth="yes"/>
      <point x="232.639" y="526.62"/>
      <point x="258.102" y="535.88"/>
      <point x="282.407" y="543.981" type="curve" smooth="yes"/>
      <point x="321.759" y="555.556"/>
      <point x="359.954" y="571.759"/>
      <point x="396.991" y="586.806" type="curve" smooth="yes"/>
      <point x="401.62" y="589.12"/>
      <point x="406.25" y="592.593"/>
      <point x="409.722" y="597.222" type="curve" smooth="yes"/>
      <point x="413.194" y="603.009" type="line" smooth="yes"/>
      <point x="420.139" y="615.741"/>
      <point x="380.787" y="604.167"/>
      <point x="368.056" y="600.694" type="curve" smooth="yes"/>
      <point x="334.491" y="592.593"/>
      <point x="300.926" y="594.907"/>
      <point x="268.519" y="604.167" type="curve" smooth="yes"/>
      <point x="241.898" y="611.111"/>
      <point x="221.065" y="627.315"/>
      <point x="204.861" y="650.463" type="curve" smooth="yes"/>
      <point x="194.444" y="664.352"/>
      <point x="196.759" y="678.241"/>
      <point x="206.019" y="690.972" type="curve" smooth="yes"/>
      <point x="208.333" y="694.444"/>
      <point x="217.593" y="697.917"/>
      <point x="223.38" y="696.759" type="curve" smooth="yes"/>
      <point x="232.639" y="694.444"/>
      <point x="241.898" y="690.972"/>
      <point x="251.157" y="685.185" type="curve" smooth="yes"/>
      <point x="277.778" y="670.139"/>
      <point x="307.87" y="665.509"/>
      <point x="337.963" y="665.509" type="curve" smooth="yes"/>
      <point x="377.315" y="664.352"/>
      <point x="417.824" y="664.352"/>
      <point x="471.065" y="664.352" type="curve" smooth="yes"/>
      <point x="480.324" y="664.352"/>
      <point x="481.481" y="664.352"/>
      <point x="491.898" y="655.093" type="curve" smooth="yes"/>
      <point x="516.204" y="634.259"/>
      <point x="535.88" y="621.528"/>
      <point x="553.241" y="606.481" type="curve" smooth="yes"/>
      <point x="559.028" y="601.852"/>
      <point x="563.657" y="590.278"/>
      <point x="561.343" y="584.491" type="curve" smooth="yes"/>
      <point x="559.028" y="579.861"/>
      <point x="559.028" y="576.389"/>
      <point x="525.463" y="576.389" type="curve" smooth="yes"/>
      <point x="497.685" y="576.389"/>
      <point x="490.741" y="571.759"/>
      <point x="480.324" y="567.13" type="curve" smooth="yes"/>
      <point x="432.87" y="546.296"/>
      <point x="408.565" y="534.722"/>
      <point x="387.731" y="525.463" type="curve" smooth="yes"/>
      <point x="358.796" y="512.731"/>
      <point x="336.806" y="493.056"/>
      <point x="324.074" y="464.12" type="curve" smooth="yes"/>
      <point x="312.5" y="438.657"/>
      <point x="303.241" y="412.037"/>
      <point x="293.981" y="385.417" type="curve" smooth="yes"/>
      <point x="289.352" y="373.843"/>
      <point x="306.713" y="351.852"/>
      <point x="321.759" y="351.852" type="curve" smooth="yes"/>
      <point x="341.435" y="350.694"/>
      <point x="362.269" y="348.38"/>
      <point x="380.787" y="353.009" type="curve" smooth="yes"/>
      <point x="393.519" y="356.481"/>
      <point x="405.093" y="370.37"/>
      <point x="413.194" y="381.944" type="curve" smooth="yes"/>
      <point x="424.769" y="396.991"/>
      <point x="431.713" y="414.352"/>
      <point x="442.13" y="430.556" type="curve" smooth="yes"/>
      <point x="444.444" y="435.185"/>
      <point x="449.074" y="439.815"/>
      <point x="452.546" y="443.287" type="curve" smooth="yes"/>
      <point x="480.324" y="467.593"/>
      <point x="510.417" y="459.491"/>
      <point x="524.306" y="425.926" type="curve" smooth="yes"/>
      <point x="527.778" y="416.667"/>
      <point x="531.25" y="407.407"/>
      <point x="532.407" y="398.148" type="curve" smooth="yes"/>
      <point x="534.722" y="370.37"/>
      <point x="554.398" y="359.954"/>
      <point x="577.546" y="350.694" type="curve" smooth="yes"/>
      <point x="606.481" y="339.12"/>
      <point x="636.574" y="327.546"/>
      <point x="663.194" y="311.343" type="curve" smooth="yes"/>
      <point x="699.074" y="290.509"/>
      <point x="706.019" y="260.417"/>
      <point x="697.917" y="218.75" type="curve" smooth="yes"/>
      <point x="692.13" y="185.185"/>
      <point x="679.398" y="155.093"/>
      <point x="649.306" y="137.731" type="curve" smooth="yes"/>
      <point x="635.417" y="129.63"/>
      <point x="619.213" y="122.685"/>
      <point x="603.009" y="119.213" type="curve" smooth="yes"/>
      <point x="571.759" y="113.426"/>
      <point x="555.556" y="105.324"/>
      <point x="517.361" y="85.6481" type="curve" smooth="yes"/>
      <point x="491.898" y="72.9167"/>
      <point x="459.491" y="70.6019"/>
      <point x="425.926" y="82.1759" type="curve" smooth="yes"/>
      <point x="421.296" y="83.3333"/>
      <point x="410.88" y="100.694"/>
      <point x="403.935" y="114.583" type="curve" smooth="yes"/>
      <point x="388.889" y="146.991"/>
      <point x="392.361" y="182.87"/>
      <point x="394.676" y="217.593" type="curve" smooth="yes"/>
      <point x="395.833" y="233.796"/>
      <point x="395.833" y="250"/>
      <point x="396.991" y="266.204" type="curve" smooth="yes"/>
      <point x="396.991" y="280.093"/>
      <point x="388.889" y="289.352"/>
      <point x="376.157" y="290.509" type="curve" smooth="yes"/>
      <point x="359.954" y="292.824"/>
      <point x="342.593" y="293.981"/>
      <point x="325.231" y="291.667" type="curve" smooth="yes"/>
      <point x="309.028" y="290.509"/>
      <point x="298.611" y="276.62"/>
      <point x="298.611" y="260.417" type="curve" smooth="yes"/>
      <point x="298.611" y="204.861"/>
      <point x="297.454" y="149.306"/>
      <point x="299.769" y="93.75" type="curve" smooth="yes"/>
      <point x="300.926" y="77.5463"/>
      <point x="311.343" y="61.3426"/>
      <point x="317.13" y="45.1389" type="curve" smooth="yes"/>
      <point x="320.602" y="32.4074"/>
      <point x="333.333" y="10.4167"/>
      <point x="328.704" y="5.78704" type="curve" smooth="yes"/>
    </contour>
    <contour>
      <point x="591.435" y="253.472" type="curve" smooth="yes"/>
      <point x="591.435" y="258.102"/>
      <point x="585.648" y="267.361"/>
      <point x="578.704" y="274.306" type="curve" smooth="yes"/>
      <point x="570.602" y="281.25"/>
      <point x="560.185" y="285.88"/>
      <point x="550.926" y="291.667" type="curve" smooth="yes"/>
      <point x="521.991" y="309.028"/>
      <point x="515.046" y="306.713"/>
      <point x="498.843" y="276.62" type="curve" smooth="yes"/>
      <point x="497.685" y="274.306"/>
      <point x="495.37" y="269.676"/>
      <point x="494.213" y="266.204" type="curve" smooth="yes"/>
      <point x="482.639" y="228.009"/>
      <point x="472.222" y="189.815"/>
      <point x="460.648" y="151.62" type="curve" smooth="yes"/>
      <point x="459.491" y="146.991"/>
      <point x="459.491" y="141.204"/>
      <point x="464.12" y="137.731" type="curve" smooth="yes"/>
      <point x="489.583" y="114.583"/>
      <point x="511.574" y="120.37"/>
      <point x="540.509" y="140.046" type="curve" smooth="yes"/>
      <point x="574.074" y="162.037"/>
      <point x="586.806" y="196.759"/>
    </contour>
  </outline>
</glyph>
<glyph name="m" format="2">
  <advance width="827"/>
  <unicode hex="006D"/>
  <outline>
    <contour>
      <point x="172.726" y="613.985" type="curve" smooth="yes"/>
      <point x="216.237" y="611.721"/>
      <point x="255.745" y="610.215"/>
      <point x="293.014" y="593.869" type="curve" smooth="yes"/>
      <point x="316.089" y="583.761"/>
      <point x="322.356" y="568.613"/>
      <point x="310.312" y="546.215" type="curve" smooth="yes"/>
      <point x="299.712" y="526.52"/>
      <point x="279.094" y="495.115"/>
      <point x="261.819" y="477.27" type="curve" smooth="yes"/>
      <point x="254.701" y="469.917"/>
      <point x="253.405" y="460.01"/>
      <point x="246.21" y="442.837" type="curve" smooth="yes"/>
      <point x="233.219" y="411.833"/>
      <point x="221.302" y="377.751"/>
      <point x="212.761" y="345.397" type="curve" smooth="yes"/>
      <point x="196.753" y="284.654"/>
      <point x="194.234" y="223.512"/>
      <point x="230.213" y="167.931" type="curve" smooth="yes"/>
      <point x="251.474" y="135.086"/>
      <point x="282.26" y="113.394"/>
      <point x="321.834" y="107.679" type="curve" smooth="yes"/>
      <point x="338.948" y="105.191"/>
      <point x="356.461" y="105.406"/>
      <point x="373.79" y="104.791" type="curve" smooth="yes"/>
      <point x="378.829" y="104.607"/>
      <point x="385.457" y="105.71"/>
      <point x="390.135" y="106.177" type="curve" smooth="yes"/>
      <point x="400" y="107.164"/>
      <point x="408.208" y="114.174"/>
      <point x="409.303" y="120.184" type="curve" smooth="yes"/>
      <point x="410.445" y="126.46"/>
      <point x="401.688" y="136.315"/>
      <point x="395.113" y="140.954" type="curve" smooth="yes"/>
      <point x="363.19" y="163.414"/>
      <point x="343.034" y="192.818"/>
      <point x="347.674" y="232.637" type="curve" smooth="yes"/>
      <point x="351.484" y="265.482"/>
      <point x="372.346" y="290.246"/>
      <point x="397.11" y="311.078" type="curve" smooth="yes"/>
      <point x="407.403" y="319.742"/>
      <point x="417.48" y="329.236"/>
      <point x="429.217" y="335.443" type="curve" smooth="yes"/>
      <point x="448.175" y="345.459"/>
      <point x="469.221" y="343.585"/>
      <point x="488.946" y="337.931" type="curve" smooth="yes"/>
      <point x="527.568" y="326.87"/>
      <point x="557.77" y="305.424"/>
      <point x="570.982" y="264.929" type="curve" smooth="yes"/>
      <point x="575.713" y="250.396"/>
      <point x="581.582" y="236.232"/>
      <point x="586.928" y="221.884" type="curve" smooth="yes"/>
      <point x="591.229" y="210.423"/>
      <point x="599.279" y="205.722"/>
      <point x="611.692" y="205.722" type="curve" smooth="yes"/>
      <point x="666.505" y="205.692"/>
      <point x="705.434" y="243.729"/>
      <point x="705.772" y="298.481" type="curve" smooth="yes"/>
      <point x="705.833" y="308.712"/>
      <point x="706.079" y="319.005"/>
      <point x="705.096" y="329.175" type="curve" smooth="yes"/>
      <point x="701.624" y="365.246"/>
      <point x="677.167" y="380.209"/>
      <point x="646.012" y="390.809" type="curve" smooth="yes"/>
      <point x="628.529" y="396.769"/>
      <point x="608.743" y="399.965"/>
      <point x="596.115" y="417.109" type="curve" smooth="yes"/>
      <point x="587.266" y="429.123"/>
      <point x="586.744" y="440.276"/>
      <point x="594.517" y="452.013" type="curve" smooth="yes"/>
      <point x="603.919" y="466.208"/>
      <point x="617.499" y="471.339"/>
      <point x="631.233" y="466.515" type="curve" smooth="yes"/>
      <point x="694.311" y="444.332"/>
      <point x="735.575" y="403.683"/>
      <point x="744.977" y="334.521" type="curve" smooth="yes"/>
      <point x="751.367" y="287.45"/>
      <point x="749.8" y="242.101"/>
      <point x="727.863" y="198.656" type="curve" smooth="yes"/>
      <point x="717.57" y="178.254"/>
      <point x="704.02" y="161.479"/>
      <point x="683.558" y="151.616" type="curve" smooth="yes"/>
      <point x="659.746" y="140.186"/>
      <point x="636.088" y="127.19"/>
      <point x="610.893" y="120.184" type="curve" smooth="yes"/>
      <point x="573.163" y="109.707"/>
      <point x="547.139" y="84.1442"/>
      <point x="522.221" y="57.5672" type="curve" smooth="yes"/>
      <point x="472.232" y="4.25962"/>
      <point x="412.411" y="-29.5992"/>
      <point x="340.607" y="-42.1656" type="curve" smooth="yes"/>
      <point x="335.199" y="-43.1181"/>
      <point x="329.024" y="-43.5175"/>
      <point x="323.923" y="-41.9198" type="curve" smooth="yes"/>
      <point x="278.297" y="-27.4791"/>
      <point x="229.69" y="-17.6472"/>
      <point x="192.851" y="14.5217" type="curve" smooth="yes"/>
      <point x="163.171" y="40.4535"/>
      <point x="134.443" y="69.8572"/>
      <point x="113.796" y="103.071" type="curve" smooth="yes"/>
      <point x="97.8192" y="128.787"/>
      <point x="92.3194" y="162.277"/>
      <point x="86.9733" y="193.125" type="curve" smooth="yes"/>
      <point x="79.2614" y="237.43"/>
      <point x="86.4817" y="281.889"/>
      <point x="96.6209" y="325.273" type="curve" smooth="yes"/>
      <point x="101.107" y="344.476"/>
      <point x="110.662" y="362.449"/>
      <point x="117.729" y="381.038" type="curve" smooth="yes"/>
      <point x="124.212" y="398.09"/>
      <point x="130.848" y="415.112"/>
      <point x="136.748" y="432.379" type="curve" smooth="yes"/>
      <point x="142.493" y="449.247"/>
      <point x="135.672" y="461.875"/>
      <point x="122.491" y="472.598" type="curve" smooth="yes"/>
      <point x="106.668" y="485.441"/>
      <point x="90.9368" y="498.499"/>
      <point x="76.1582" y="512.54" type="curve" smooth="yes"/>
      <point x="49.3661" y="537.919"/>
      <point x="52.7766" y="566.739"/>
      <point x="82.7026" y="588.584" type="curve" smooth="yes"/>
      <point x="111" y="609.293"/>
      <point x="141.661" y="615.601"/>
    </contour>
    <contour>
      <point x="488.67" y="186.919" type="curve" smooth="yes"/>
      <point x="513.004" y="186.519"/>
      <point x="523.328" y="193.647"/>
      <point x="524.034" y="214.264" type="curve" smooth="yes"/>
      <point x="524.679" y="233.221"/>
      <point x="518.842" y="250.888"/>
      <point x="502.926" y="262.655" type="curve" smooth="yes"/>
      <point x="491.066" y="271.443"/>
      <point x="476.626" y="276.574"/>
      <point x="463.045" y="268.155" type="curve" smooth="yes"/>
      <point x="448.267" y="258.968"/>
      <point x="435.086" y="246.924"/>
      <point x="436.561" y="226.707" type="curve" smooth="yes"/>
      <point x="437.08" y="219.504"/>
      <point x="447.294" y="208.106"/>
      <point x="453.79" y="201.594" type="curve" smooth="yes"/>
      <point x="464.195" y="191.162"/>
      <point x="474.237" y="187.146"/>
    </contour>
  </outline>
  <guideline angle="0" x="0" y="614"/>
  <guideline angle="0" x="0" y="-43"/>
</glyph>
<glyph name="p" format="2">
  <advance width="594"/>
  <unicode hex="0070"/>
  <outline>
    <contour>
      <point x="232.593" y="585.115" type="curve"/>
      <point x="197.273" y="587.251"/>
      <point x="164.661" y="588.241"/>
      <point x="132.362" y="591.471" type="curve" smooth="yes"/>
      <point x="110.222" y="593.711"/>
      <point x="87.9773" y="597.67"/>
      <point x="66.6704" y="603.765" type="curve" smooth="yes"/>
      <point x="52.6568" y="607.776"/>
      <point x="47.8174" y="623.175"/>
      <point x="50.1042" y="635.647" type="curve" smooth="yes"/>
      <point x="51.9999" y="645.986" type="line" smooth="yes"/>
      <point x="54.3858" y="658.999"/>
      <point x="55.1686" y="666.084"/>
      <point x="59.5855" y="677.011" type="curve" smooth="yes"/>
      <point x="66.0121" y="692.908"/>
      <point x="89.6443" y="704.725"/>
      <point x="112.722" y="695.087" type="curve" smooth="yes"/>
      <point x="156.691" y="676.698"/>
      <point x="202.951" y="667.738"/>
      <point x="250.618" y="668.363" type="curve" smooth="yes"/>
      <point x="272.862" y="668.623"/>
      <point x="294.794" y="669.196"/>
      <point x="315.58" y="682.064" type="curve" smooth="yes"/>
      <point x="330.427" y="691.285"/>
      <point x="348.869" y="695.765"/>
      <point x="366.269" y="699.099" type="curve" smooth="yes"/>
      <point x="378.407" y="701.391"/>
      <point x="391.634" y="700.877"/>
      <point x="403.295" y="695.822" type="curve" smooth="yes"/>
      <point x="412.735" y="691.73"/>
      <point x="437.265" y="689.915"/>
      <point x="459.05" y="688.784" type="curve" smooth="yes"/>
      <point x="467.879" y="688.326"/>
      <point x="476.762" y="687.69"/>
      <point x="485.358" y="686.023" type="curve" smooth="yes"/>
      <point x="497.444" y="683.731"/>
      <point x="507.863" y="679.251"/>
      <point x="509.79" y="664.456" type="curve" smooth="yes"/>
      <point x="511.718" y="649.817"/>
      <point x="510.416" y="637.314"/>
      <point x="497.392" y="627.572" type="curve" smooth="yes"/>
      <point x="478.429" y="613.403"/>
      <point x="465.058" y="605.364"/>
      <point x="450.299" y="610.467" type="curve" smooth="yes"/>
      <point x="414.734" y="622.764"/>
      <point x="383.043" y="619.393"/>
      <point x="358.194" y="608.61" type="curve" smooth="yes"/>
      <point x="353.401" y="606.526"/>
      <point x="348.661" y="603.14"/>
      <point x="345.327" y="599.129" type="curve" smooth="yes"/>
      <point x="317.716" y="566.204"/>
      <point x="297.034" y="529.946"/>
      <point x="303.807" y="485.145" type="curve" smooth="yes"/>
      <point x="306.985" y="464.15"/>
      <point x="315.945" y="444.094"/>
      <point x="322.196" y="423.516" type="curve" smooth="yes"/>
      <point x="325.739" y="411.847"/>
      <point x="328.26" y="399.225"/>
      <point x="329.524" y="387.169" type="curve" smooth="yes"/>
      <point x="330.235" y="380.381"/>
      <point x="336.41" y="376.584"/>
      <point x="340.786" y="376.421" type="curve" smooth="yes"/>
      <point x="362.926" y="375.594"/>
      <point x="384.429" y="363.266"/>
      <point x="402.386" y="352.848" type="curve" smooth="yes"/>
      <point x="411.861" y="347.351"/>
      <point x="425.454" y="344.127"/>
      <point x="443.161" y="343.394" type="curve" smooth="yes"/>
      <point x="474.056" y="342.115"/>
      <point x="493.849" y="323.754"/>
      <point x="509.634" y="296.144" type="curve" smooth="yes"/>
      <point x="524.273" y="270.565"/>
      <point x="522.345" y="245.351"/>
      <point x="523.439" y="218.575" type="curve" smooth="yes"/>
      <point x="525.367" y="171.272"/>
      <point x="517.553" y="125.377"/>
      <point x="507.238" y="79.7934" type="curve" smooth="yes"/>
      <point x="499.059" y="43.6916"/>
      <point x="473.897" y="19.2069"/>
      <point x="445.193" y="-2.09992" type="curve" smooth="yes"/>
      <point x="419.301" y="-21.3751"/>
      <point x="389.816" y="-28.4079"/>
      <point x="358.298" y="-28.8768" type="curve" smooth="yes"/>
      <point x="339.544" y="-29.1893"/>
      <point x="320.686" y="-29.9187"/>
      <point x="302.036" y="-28.5642" type="curve" smooth="yes"/>
      <point x="292.711" y="-27.8869"/>
      <point x="282.448" y="-24.605"/>
      <point x="274.894" y="-19.2392" type="curve" smooth="yes"/>
      <point x="269.58" y="-15.4883"/>
      <point x="264.319" y="-5.38189"/>
      <point x="265.621" y="0.400656" type="curve" smooth="yes"/>
      <point x="271.091" y="24.9895"/>
      <point x="280.208" y="49.1095"/>
      <point x="305.005" y="60.362" type="curve" smooth="yes"/>
      <point x="322.665" y="68.3325"/>
      <point x="342.201" y="72.0313"/>
      <point x="360.747" y="78.0743" type="curve" smooth="yes"/>
      <point x="379.397" y="84.1173"/>
      <point x="398.776" y="88.8059"/>
      <point x="416.072" y="97.5578" type="curve" smooth="yes"/>
      <point x="432.065" y="105.633"/>
      <point x="441.233" y="121.834"/>
      <point x="441.65" y="139.911" type="curve" smooth="yes"/>
      <point x="442.327" y="169.918"/>
      <point x="441.859" y="200.081"/>
      <point x="439.619" y="230.035" type="curve" smooth="yes"/>
      <point x="437.951" y="251.811"/>
      <point x="426.855" y="270.409"/>
      <point x="408.935" y="283.276" type="curve" smooth="yes"/>
      <point x="389.764" y="297.134"/>
      <point x="369.447" y="308.907"/>
      <point x="345.832" y="310.884" type="curve" smooth="yes"/>
      <point x="339.16" y="311.442"/>
      <point x="335.411" y="311.011"/>
      <point x="329.698" y="310.321" type="curve"/>
      <point x="329.389" y="306.402"/>
      <point x="329.675" y="303.112"/>
      <point x="329.698" y="297.915" type="curve" smooth="yes"/>
      <point x="329.75" y="275.775"/>
      <point x="331.157" y="252.957"/>
      <point x="326.364" y="231.703" type="curve" smooth="yes"/>
      <point x="321.415" y="209.927"/>
      <point x="318.55" y="186.64"/>
      <point x="302.036" y="168.199" type="curve" smooth="yes"/>
      <point x="287.709" y="152.258"/>
      <point x="277.134" y="133.139"/>
      <point x="263.485" y="116.573" type="curve" smooth="yes"/>
      <point x="247.127" y="96.6723"/>
      <point x="217.121" y="91.567"/>
      <point x="193.991" y="103.184" type="curve" smooth="yes"/>
      <point x="165.755" y="117.406"/>
      <point x="142.99" y="137.202"/>
      <point x="128.455" y="165.907" type="curve" smooth="yes"/>
      <point x="126.371" y="169.97"/>
      <point x="120.641" y="172.679"/>
      <point x="116.109" y="174.815" type="curve" smooth="yes"/>
      <point x="96.625" y="184.14"/>
      <point x="76.9852" y="192.631"/>
      <point x="65.368" y="213.052" type="curve" smooth="yes"/>
      <point x="51.1982" y="238.006"/>
      <point x="62.2944" y="265.356"/>
      <point x="90.2694" y="271.659" type="curve" smooth="yes"/>
      <point x="111.993" y="276.504"/>
      <point x="134.55" y="279.057"/>
      <point x="155.128" y="286.871" type="curve" smooth="yes"/>
      <point x="180.55" y="296.561"/>
      <point x="205.504" y="308.699"/>
      <point x="228.373" y="323.338" type="curve" smooth="yes"/>
      <point x="270.518" y="350.271"/>
      <point x="264.736" y="339.539"/>
      <point x="246.398" y="385.904" type="curve" smooth="yes"/>
      <point x="238.376" y="406.169"/>
      <point x="223.685" y="423.725"/>
      <point x="212.797" y="442.948" type="curve" smooth="yes"/>
      <point x="208.369" y="450.814"/>
      <point x="204.097" y="459.514"/>
      <point x="202.69" y="468.266" type="curve" smooth="yes"/>
      <point x="197.741" y="500.461"/>
      <point x="203.732" y="530.988"/>
      <point x="220.142" y="559.38" type="curve" smooth="yes"/>
      <point x="224.466" y="566.934"/>
      <point x="227.8" y="575.165"/>
    </contour>
    <contour>
      <point x="256.305" y="291.323" type="curve"/>
      <point x="230.986" y="279.789"/>
      <point x="210.088" y="272.753"/>
      <point x="190.24" y="264.001" type="curve" smooth="yes"/>
      <point x="181.592" y="260.146"/>
      <point x="173.257" y="253.791"/>
      <point x="167.318" y="246.55" type="curve" smooth="yes"/>
      <point x="164.557" y="243.215"/>
      <point x="165.547" y="231.807"/>
      <point x="168.777" y="229.358" type="curve" smooth="yes"/>
      <point x="185.968" y="216.491"/>
      <point x="204.253" y="204.978"/>
      <point x="222.591" y="193.673" type="curve" smooth="yes"/>
      <point x="230.145" y="188.985"/>
      <point x="237.021" y="190.391"/>
      <point x="239.001" y="200.55" type="curve" smooth="yes"/>
      <point x="244.575" y="229.15"/>
      <point x="250.262" y="259.597"/>
    </contour>
  </outline>
  <guideline angle="0" x="0" y="651.1"/>
  <guideline angle="0" x="0" y="13.3"/>
</glyph>
<glyph name="t" format="2">
  <advance width="844"/>
  <unicode hex="0074"/>
  <outline>
    <contour>
      <point x="237.6" y="361.55" type="curve"/>
      <point x="209.8" y="360.25"/>
      <point x="182.65" y="358.7"/>
      <point x="155.45" y="357.9" type="curve" smooth="yes"/>
      <point x="131.2" y="357.15"/>
      <point x="106.2" y="353.65"/>
      <point x="84.35" y="368" type="curve" smooth="yes"/>
      <point x="76" y="373.45"/>
      <point x="67.2" y="380.3"/>
      <point x="62.35" y="388.7" type="curve" smooth="yes"/>
      <point x="45.45" y="417.65"/>
      <point x="55.25" y="456.45"/>
      <point x="82" y="470.25" type="curve" smooth="yes"/>
      <point x="88.35" y="473.5"/>
      <point x="96.05" y="475.2"/>
      <point x="103.2" y="475.6" type="curve" smooth="yes"/>
      <point x="145.95" y="477.95"/>
      <point x="188.8" y="479.25"/>
      <point x="231.55" y="481.8" type="curve" smooth="yes"/>
      <point x="266.6" y="483.9"/>
      <point x="271.05" y="489.65"/>
      <point x="282" y="523.3" type="curve" smooth="yes"/>
      <point x="291.35" y="551.95"/>
      <point x="304.1" y="579.55"/>
      <point x="315.45" y="607.55" type="curve" smooth="yes"/>
      <point x="324.02" y="628.655"/>
      <point x="335.695" y="653.678"/>
      <point x="352.5" y="669.25" type="curve" smooth="yes"/>
      <point x="381.7" y="696.5"/>
      <point x="423.05" y="686.75"/>
      <point x="443.05" y="652" type="curve" smooth="yes"/>
      <point x="456.45" y="628.65"/>
      <point x="451.55" y="610.6"/>
      <point x="436.6" y="590.95" type="curve" smooth="yes"/>
      <point x="419.75" y="568.9"/>
      <point x="404.05" y="545.85"/>
      <point x="389.3" y="522.35" type="curve" smooth="yes"/>
      <point x="380.25" y="507.85"/>
      <point x="383.85" y="499.35"/>
      <point x="399.85" y="493.55" type="curve" smooth="yes"/>
      <point x="409.55" y="490"/>
      <point x="419.95" y="487.05"/>
      <point x="430.1" y="486.65" type="curve" smooth="yes"/>
      <point x="493.75" y="484.4"/>
      <point x="557.4" y="482.95"/>
      <point x="621.05" y="481.25" type="curve" smooth="yes"/>
      <point x="656.85" y="480.35"/>
      <point x="692.65" y="480.2"/>
      <point x="728.35" y="478.35" type="curve" smooth="yes"/>
      <point x="752.8" y="477.05"/>
      <point x="766.75" y="459.1"/>
      <point x="774.7" y="439.2" type="curve" smooth="yes"/>
      <point x="777.8" y="431.35"/>
      <point x="772.2" y="415.1"/>
      <point x="765.1" y="409.25" type="curve" smooth="yes"/>
      <point x="754.35" y="400.3"/>
      <point x="739.1" y="392.95"/>
      <point x="725.35" y="392.15" type="curve" smooth="yes"/>
      <point x="616.5" y="386.1"/>
      <point x="507.55" y="382.05"/>
      <point x="398.65" y="376.65" type="curve" smooth="yes"/>
      <point x="387.05" y="376.1"/>
      <point x="372.8" y="374.2"/>
      <point x="364.9" y="367.1" type="curve" smooth="yes"/>
      <point x="356.55" y="359.6"/>
      <point x="350.75" y="345.5"/>
      <point x="349.95" y="333.85" type="curve" smooth="yes"/>
      <point x="347.1" y="291.1"/>
      <point x="346.4" y="248.2"/>
      <point x="346" y="205.4" type="curve" smooth="yes"/>
      <point x="345.9" y="199"/>
      <point x="350.2" y="190.15"/>
      <point x="355.35" y="186.85" type="curve" smooth="yes"/>
      <point x="358.7" y="184.75"/>
      <point x="366.148" y="188.774"/>
      <point x="371.053" y="192.084" type="curve" smooth="yes"/>
      <point x="387.881" y="203.44"/>
      <point x="402.333" y="213.923"/>
      <point x="401.05" y="227.721" type="curve" smooth="yes"/>
      <point x="398.866" y="251.196"/>
      <point x="419" y="270.8"/>
      <point x="433.7" y="272.55" type="curve" smooth="yes"/>
      <point x="468.8" y="276.75"/>
      <point x="492.35" y="259.35"/>
      <point x="501.5" y="233.65" type="curve" smooth="yes"/>
      <point x="506.22" y="220.412"/>
      <point x="507.55" y="215.991"/>
      <point x="507.349" y="192.565" type="curve" smooth="yes"/>
      <point x="507.149" y="169.14"/>
      <point x="503.581" y="161.607"/>
      <point x="488.8" y="147.9" type="curve" smooth="yes"/>
      <point x="456.75" y="118.15"/>
      <point x="426.3" y="86.1"/>
      <point x="391.25" y="60.35" type="curve" smooth="yes"/>
      <point x="351.25" y="31"/>
      <point x="332.6" y="38.75"/>
      <point x="296.5" y="69" type="curve" smooth="yes"/>
      <point x="257.45" y="101.7"/>
      <point x="246.65" y="147.25"/>
      <point x="242.3" y="194" type="curve" smooth="yes"/>
      <point x="238.95" y="229.95"/>
      <point x="242.8" y="266.55"/>
      <point x="242.3" y="302.85" type="curve" smooth="yes"/>
      <point x="242.05" y="322"/>
      <point x="239.3" y="341.15"/>
    </contour>
    <contour>
      <point x="699.45" y="236.3" type="curve" smooth="yes"/>
      <point x="701.24" y="206.401"/>
      <point x="694.74" y="201.179"/>
      <point x="666.5" y="182.9" type="curve" smooth="yes"/>
      <point x="651.131" y="172.952"/>
      <point x="634.2" y="178.05"/>
      <point x="619.75" y="186.4" type="curve" smooth="yes"/>
      <point x="594.35" y="201"/>
      <point x="579.2" y="223.287"/>
      <point x="579.2" y="253.3" type="curve" smooth="yes"/>
      <point x="579.2" y="262.508"/>
      <point x="573.45" y="288.45"/>
      <point x="569.7" y="305.85" type="curve" smooth="yes"/>
      <point x="566.1" y="322.55"/>
      <point x="574.883" y="335.494"/>
      <point x="589.15" y="328.25" type="curve" smooth="yes"/>
      <point x="666.426" y="289.015"/>
      <point x="665.05" y="305.15"/>
      <point x="686.85" y="268.45" type="curve" smooth="yes"/>
      <point x="693.75" y="256.9"/>
      <point x="699.015" y="243.567"/>
    </contour>
  </outline>
  <guideline angle="0" x="0" y="685"/>
  <guideline angle="0" x="0" y="42"/>
</glyph>
<glyph name="u" format="2">
  <advance width="1021"/>
  <unicode hex="0075"/>
  <outline>
    <contour>
      <point x="616.204" y="304.861" type="curve"/>
      <point x="623.843" y="315.509"/>
      <point x="635.474" y="327.373"/>
      <point x="641.956" y="341.609" type="curve" smooth="yes"/>
      <point x="653.704" y="367.245"/>
      <point x="664.641" y="393.75"/>
      <point x="671.875" y="420.949" type="curve" smooth="yes"/>
      <point x="686.979" y="478.241"/>
      <point x="689.209" y="530.816"/>
      <point x="676.447" y="594.85" type="curve" smooth="yes"/>
      <point x="669.087" y="631.777"/>
      <point x="632.697" y="647.512"/>
      <point x="593.924" y="647.743" type="curve" smooth="yes"/>
      <point x="546.181" y="648.148"/>
      <point x="501.042" y="636.053"/>
      <point x="457.292" y="618.924" type="curve" smooth="yes"/>
      <point x="421.933" y="605.093"/>
      <point x="387.616" y="588.426"/>
      <point x="353.067" y="572.569" type="curve" smooth="yes"/>
      <point x="331.366" y="562.616"/>
      <point x="319.329" y="544.965"/>
      <point x="310.127" y="522.975" type="curve" smooth="yes"/>
      <point x="283.391" y="459.028"/>
      <point x="282.581" y="390.22"/>
      <point x="269.618" y="323.727" type="curve" smooth="yes"/>
      <point x="263.484" y="292.303"/>
      <point x="256.771" y="259.201"/>
      <point x="241.551" y="231.713" type="curve" smooth="yes"/>
      <point x="221.701" y="195.891"/>
      <point x="189.699" y="191.84"/>
      <point x="157.523" y="220.081" type="curve" smooth="yes"/>
      <point x="132.35" y="242.13"/>
      <point x="120.081" y="273.264"/>
      <point x="111.343" y="304.225" type="curve" smooth="yes"/>
      <point x="93.5764" y="366.782"/>
      <point x="88.368" y="431.424"/>
      <point x="89.1782" y="496.238" type="curve" smooth="yes"/>
      <point x="89.5254" y="525.579"/>
      <point x="93.1713" y="555.035"/>
      <point x="97.4537" y="584.144" type="curve" smooth="yes"/>
      <point x="102.604" y="619.676"/>
      <point x="131.984" y="643.972"/>
      <point x="157.234" y="656.713" type="curve" smooth="yes"/>
      <point x="165.717" y="660.994"/>
      <point x="180.266" y="659.722"/>
      <point x="191.03" y="656.887" type="curve" smooth="yes"/>
      <point x="229.456" y="646.759"/>
      <point x="265.046" y="632.176"/>
      <point x="287.674" y="595.775" type="curve" smooth="yes"/>
      <point x="299.769" y="576.331"/>
      <point x="313.426" y="575.232"/>
      <point x="330.787" y="591.435" type="curve" smooth="yes"/>
      <point x="361.285" y="619.734"/>
      <point x="389.352" y="650.752"/>
      <point x="420.66" y="678.183" type="curve" smooth="yes"/>
      <point x="460.995" y="713.6"/>
      <point x="502.546" y="748.032"/>
      <point x="552.083" y="770.486" type="curve" smooth="yes"/>
      <point x="585.88" y="785.764"/>
      <point x="622.396" y="784.259"/>
      <point x="657.928" y="782.465" type="curve" smooth="yes"/>
      <point x="762.362" y="777.162"/>
      <point x="861.292" y="686.884"/>
      <point x="864.41" y="580.15" type="curve" smooth="yes"/>
      <point x="867.361" y="478.356"/>
      <point x="842.13" y="383.449"/>
      <point x="797.338" y="292.882" type="curve" smooth="yes"/>
      <point x="789.178" y="276.331"/>
      <point x="781.267" y="259.601"/>
      <point x="775.463" y="242.188" type="curve" smooth="yes"/>
      <point x="771.374" y="229.922"/>
      <point x="772.805" y="227.284"/>
      <point x="781.076" y="222.049" type="curve" smooth="yes"/>
      <point x="800.935" y="209.48"/>
      <point x="821.296" y="197.106"/>
      <point x="842.94" y="188.021" type="curve" smooth="yes"/>
      <point x="876.562" y="173.843"/>
      <point x="907.234" y="156.771"/>
      <point x="929.051" y="126.447" type="curve" smooth="yes"/>
      <point x="944.792" y="104.572"/>
      <point x="950.116" y="78.8194"/>
      <point x="938.368" y="65.3357" type="curve" smooth="yes"/>
      <point x="922.627" y="47.1644"/>
      <point x="901.736" y="43.1134"/>
      <point x="878.414" y="48.6111" type="curve" smooth="yes"/>
      <point x="816.898" y="63.0208"/>
      <point x="758.681" y="86.0532"/>
      <point x="701.91" y="113.31" type="curve" smooth="yes"/>
      <point x="685.359" y="121.238"/>
      <point x="667.824" y="129.919"/>
      <point x="650.116" y="131.655" type="curve" smooth="yes"/>
      <point x="635.127" y="133.16"/>
      <point x="619.097" y="125.694"/>
      <point x="603.762" y="121.238" type="curve" smooth="yes"/>
      <point x="568.461" y="110.88"/>
      <point x="533.854" y="97.0486"/>
      <point x="497.859" y="90.4513" type="curve" smooth="yes"/>
      <point x="481.771" y="87.4999"/>
      <point x="460.243" y="94.5601"/>
      <point x="446.065" y="104.224" type="curve" smooth="yes"/>
      <point x="414.294" y="125.868"/>
      <point x="385.764" y="152.083"/>
      <point x="364.352" y="184.896" type="curve" smooth="yes"/>
      <point x="347.569" y="210.532"/>
      <point x="353.009" y="264.12"/>
      <point x="376.62" y="292.535" type="curve" smooth="yes"/>
      <point x="402.373" y="323.553"/>
      <point x="436.343" y="343.634"/>
      <point x="472.801" y="358.97" type="curve" smooth="yes"/>
      <point x="492.708" y="367.419"/>
      <point x="513.657" y="365.914"/>
      <point x="526.183" y="355.094" type="curve" smooth="yes"/>
      <point x="534.491" y="347.917"/>
      <point x="537.616" y="345.139"/>
      <point x="556.441" y="335.39" type="curve" smooth="yes"/>
      <point x="565.104" y="330.903"/>
      <point x="589.12" y="318.75"/>
    </contour>
    <contour>
      <point x="505.324" y="248.611" type="curve" smooth="yes"/>
      <point x="493.999" y="247.794"/>
      <point x="484.606" y="238.137"/>
      <point x="476.678" y="230.44" type="curve" smooth="yes"/>
      <point x="468.171" y="222.164"/>
      <point x="462.037" y="211.285"/>
      <point x="455.961" y="200.81" type="curve" smooth="yes"/>
      <point x="443.345" y="179.109"/>
      <point x="451.157" y="165.336"/>
      <point x="476.678" y="168.808" type="curve" smooth="yes"/>
      <point x="493.576" y="171.123"/>
      <point x="509.78" y="180.44"/>
      <point x="525.579" y="188.194" type="curve" smooth="yes"/>
      <point x="536.4" y="193.576"/>
      <point x="546.991" y="201.562"/>
      <point x="544.039" y="216.146" type="curve" smooth="yes"/>
      <point x="540.683" y="232.697"/>
      <point x="524.874" y="250.021"/>
    </contour>
  </outline>
  <guideline angle="0" x="0" y="783.565"/>
  <guideline angle="0" x="0" y="46.2963"/>
</glyph>
<glyph name="v" format="2">
  <advance width="566"/>
  <unicode hex="0076"/>
  <outline>
    <contour>
      <point x="387.866" y="454.391" type="curve" smooth="yes"/>
      <point x="372.133" y="443.932"/>
      <point x="350.193" y="432.858"/>
      <point x="345.15" y="428.3" type="curve" smooth="yes"/>
      <point x="321.65" y="406.8"/>
      <point x="302.75" y="416.7"/>
      <point x="283.05" y="438.3" type="curve" smooth="yes"/>
      <point x="271.8" y="450.65"/>
      <point x="262.75" y="465.45"/>
      <point x="254.95" y="480.35" type="curve" smooth="yes"/>
      <point x="247.35" y="494.95"/>
      <point x="241.902" y="509.547"/>
      <point x="243.783" y="521.458" type="curve" smooth="yes"/>
      <point x="245.709" y="533.652"/>
      <point x="248.05" y="537.683"/>
      <point x="246.522" y="554.743" type="curve" smooth="yes"/>
      <point x="245.363" y="567.682"/>
      <point x="262.05" y="579.7"/>
      <point x="283.1" y="593.85" type="curve" smooth="yes"/>
      <point x="304.5" y="608.2"/>
      <point x="319.2" y="609.05"/>
      <point x="338.3" y="591.6" type="curve" smooth="yes"/>
      <point x="369.1" y="563.55"/>
      <point x="393.246" y="533.039"/>
      <point x="393.432" y="515.071" type="curve" smooth="yes"/>
      <point x="393.987" y="461.289"/>
      <point x="393.275" y="457.988"/>
    </contour>
    <contour>
      <point x="284.897" y="72.0085" type="curve" smooth="yes"/>
      <point x="258.561" y="72.157"/>
      <point x="236.5" y="76"/>
      <point x="217.3" y="96.45" type="curve" smooth="yes"/>
      <point x="196.4" y="118.8"/>
      <point x="171.45" y="137.65"/>
      <point x="152.4" y="161.3" type="curve" smooth="yes"/>
      <point x="138.4" y="178.7"/>
      <point x="130.25" y="201.05"/>
      <point x="120.9" y="221.8" type="curve" smooth="yes"/>
      <point x="108.6" y="249.15"/>
      <point x="99.2" y="277.9"/>
      <point x="85.75" y="304.6" type="curve" smooth="yes"/>
      <point x="64.3" y="347.3"/>
      <point x="63" y="392.05"/>
      <point x="70.3" y="437.25" type="curve" smooth="yes"/>
      <point x="74.8" y="465.4"/>
      <point x="122.2" y="477.4"/>
      <point x="151.25" y="460.1" type="curve" smooth="yes"/>
      <point x="184.3" y="440.4"/>
      <point x="201.9" y="407.9"/>
      <point x="221.4" y="376.8" type="curve" smooth="yes"/>
      <point x="248.8" y="332.8"/>
      <point x="276.15" y="288.7"/>
      <point x="304.65" y="245.45" type="curve" smooth="yes"/>
      <point x="325.75" y="213.5"/>
      <point x="344.5" y="180.85"/>
      <point x="352.85" y="143" type="curve" smooth="yes"/>
      <point x="356.807" y="125.245"/>
      <point x="350.233" y="108.474"/>
      <point x="343.602" y="95.4643" type="curve" smooth="yes"/>
      <point x="336.825" y="82.1684"/>
      <point x="329.889" y="72.8262"/>
      <point x="324.818" y="72.7508" type="curve" smooth="yes"/>
      <point x="294.5" y="72.3"/>
      <point x="290.047" y="71.9794"/>
    </contour>
    <contour>
      <point x="399" y="364.1" type="curve" smooth="yes"/>
      <point x="399.55" y="398.45"/>
      <point x="415.45" y="414.15"/>
      <point x="449" y="413.6" type="curve" smooth="yes"/>
      <point x="483.8" y="412.95"/>
      <point x="503.35" y="390.85"/>
      <point x="502.8" y="352.85" type="curve" smooth="yes"/>
      <point x="502.55" y="334.65"/>
      <point x="466.485" y="303.249"/>
      <point x="449.378" y="309.053" type="curve" smooth="yes"/>
      <point x="432.272" y="314.856"/>
      <point x="415.538" y="316.08"/>
      <point x="407.44" y="327.958" type="curve" smooth="yes"/>
      <point x="402.047" y="335.869"/>
      <point x="398.82" y="351.887"/>
    </contour>
  </outline>
</glyph>
<glyph name="x" format="2">
  <advance width="761"/>
  <unicode hex="0078"/>
  <outline>
    <contour>
      <point x="183.7" y="369.4" type="curve"/>
      <point x="183.7" y="420.65"/>
      <point x="183.9" y="470.55"/>
      <point x="183.2" y="520.5" type="curve" smooth="yes"/>
      <point x="183.15" y="524.45"/>
      <point x="176.55" y="531.5"/>
      <point x="172.65" y="531.7" type="curve" smooth="yes"/>
      <point x="132.05" y="534.3"/>
      <point x="107.2" y="558.45"/>
      <point x="90.45" y="592.1" type="curve" smooth="yes"/>
      <point x="75.15" y="622.9"/>
      <point x="65.45" y="655.75"/>
      <point x="61.6" y="690.2" type="curve" smooth="yes"/>
      <point x="59.15" y="711.7"/>
      <point x="63.9" y="717.9"/>
      <point x="85" y="714" type="curve" smooth="yes"/>
      <point x="97.4" y="711.75"/>
      <point x="110.45" y="706.2"/>
      <point x="120.35" y="698.45" type="curve" smooth="yes"/>
      <point x="159.8" y="667.55"/>
      <point x="204.9" y="665.95"/>
      <point x="251.4" y="670.35" type="curve" smooth="yes"/>
      <point x="270.45" y="672.15"/>
      <point x="289.35" y="675.4"/>
      <point x="308.35" y="677.75" type="curve" smooth="yes"/>
      <point x="328.9" y="680.25"/>
      <point x="348.9" y="666.6"/>
      <point x="353.9" y="646.45" type="curve" smooth="yes"/>
      <point x="363.7" y="606.85"/>
      <point x="352.05" y="564.2"/>
      <point x="301.9" y="548.4" type="curve" smooth="yes"/>
      <point x="280.25" y="541.6"/>
      <point x="273.6" y="527.25"/>
      <point x="272.35" y="508.35" type="curve" smooth="yes"/>
      <point x="269.45" y="465.6"/>
      <point x="267.95" y="422.75"/>
      <point x="265.35" y="379.95" type="curve" smooth="yes"/>
      <point x="264.7" y="369.5"/>
      <point x="268.2" y="365.9"/>
      <point x="278.7" y="365.25" type="curve" smooth="yes"/>
      <point x="303.8" y="363.65"/>
      <point x="328.85" y="360.85"/>
      <point x="353.9" y="358.15" type="curve" smooth="yes"/>
      <point x="365.6" y="356.9"/>
      <point x="372.25" y="360.05"/>
      <point x="374.95" y="372.95" type="curve" smooth="yes"/>
      <point x="385.05" y="421.25"/>
      <point x="415.85" y="454.55"/>
      <point x="454.6" y="482.7" type="curve" smooth="yes"/>
      <point x="484.45" y="504.45"/>
      <point x="514.55" y="524.8"/>
      <point x="550.25" y="535.95" type="curve" smooth="yes"/>
      <point x="573.75" y="543.3"/>
      <point x="594.5" y="537.45"/>
      <point x="612.45" y="523.1" type="curve" smooth="yes"/>
      <point x="631.85" y="507.6"/>
      <point x="631.565" y="483.221"/>
      <point x="632.822" y="455.797" type="curve" smooth="yes"/>
      <point x="633.272" y="445.961"/>
      <point x="619.264" y="445.961"/>
      <point x="608.95" y="447.35" type="curve" smooth="yes"/>
      <point x="576.736" y="451.687"/>
      <point x="567.171" y="456.564"/>
      <point x="561.156" y="459.152" type="curve" smooth="yes"/>
      <point x="521.863" y="476.055"/>
      <point x="499.6" y="469.4"/>
      <point x="480" y="440.4" type="curve" smooth="yes"/>
      <point x="465.9" y="419.6"/>
      <point x="456.65" y="395.15"/>
      <point x="447.5" y="371.45" type="curve" smooth="yes"/>
      <point x="440.65" y="353.6"/>
      <point x="446.95" y="335.15"/>
      <point x="458.65" y="321.85" type="curve" smooth="yes"/>
      <point x="478.55" y="299.2"/>
      <point x="500.75" y="278.55"/>
      <point x="522.9" y="258.05" type="curve" smooth="yes"/>
      <point x="555.2" y="228.2"/>
      <point x="609.851" y="247.402"/>
      <point x="622.6" y="264" type="curve" smooth="yes"/>
      <point x="641.637" y="288.784"/>
      <point x="676.4" y="283.85"/>
      <point x="692.8" y="249.05" type="curve" smooth="yes"/>
      <point x="701.65" y="230.25"/>
      <point x="706" y="210.45"/>
      <point x="699.5" y="189.05" type="curve" smooth="yes"/>
      <point x="692.25" y="165.3"/>
      <point x="680.8" y="155.45"/>
      <point x="655.55" y="153.5" type="curve" smooth="yes"/>
      <point x="625.65" y="151.25"/>
      <point x="597.113" y="158.22"/>
      <point x="569.65" y="167.9" type="curve" smooth="yes"/>
      <point x="527.935" y="182.603"/>
      <point x="491.394" y="199.94"/>
      <point x="455.65" y="222.6" type="curve" smooth="yes"/>
      <point x="426.728" y="240.935"/>
      <point x="401.65" y="262.55"/>
      <point x="386.3" y="290.15" type="curve"/>
      <point x="357.999" y="281.135"/>
      <point x="339.539" y="276.35"/>
      <point x="325.561" y="273.998" type="curve" smooth="yes"/>
      <point x="307.245" y="270.916"/>
      <point x="294.184" y="269.276"/>
      <point x="286.887" y="268.836" type="curve" smooth="yes"/>
      <point x="279.975" y="268.419"/>
      <point x="262.298" y="270.728"/>
      <point x="261.561" y="264.922" type="curve" smooth="yes"/>
      <point x="260.4" y="255.768"/>
      <point x="260.35" y="244.55"/>
      <point x="260.25" y="233.6" type="curve" smooth="yes"/>
      <point x="259.7" y="181.05"/>
      <point x="261.6" y="128.4"/>
      <point x="258.8" y="76" type="curve" smooth="yes"/>
      <point x="257.35" y="47.9"/>
      <point x="251.747" y="20.442"/>
      <point x="241.85" y="-7.6" type="curve" smooth="yes"/>
      <point x="239.994" y="-12.8587"/>
      <point x="232.804" y="-18.6393"/>
      <point x="227.05" y="-18.75" type="curve" smooth="yes"/>
      <point x="221.7" y="-18.85"/>
      <point x="214.5" y="-13.45"/>
      <point x="211" y="-8.45005" type="curve" smooth="yes"/>
      <point x="190.25" y="21.1"/>
      <point x="189.75" y="56.5"/>
      <point x="187.6" y="90.1" type="curve" smooth="yes"/>
      <point x="183.9" y="148"/>
      <point x="184.55" y="206.2"/>
      <point x="183.943" y="273.476" type="curve" smooth="yes"/>
      <point x="183.866" y="281.976"/>
      <point x="182.584" y="283.443"/>
      <point x="176.139" y="286.177" type="curve" smooth="yes"/>
      <point x="138.95" y="301.95"/>
      <point x="112.75" y="315.3"/>
      <point x="88.8" y="331.35" type="curve" smooth="yes"/>
      <point x="78.3" y="338.35"/>
      <point x="70.95" y="353.15"/>
      <point x="66.8" y="365.95" type="curve" smooth="yes"/>
      <point x="60.6" y="384.95"/>
      <point x="71.4" y="392.8"/>
      <point x="91.95" y="387.65" type="curve" smooth="yes"/>
      <point x="107.458" y="383.809" type="line" smooth="yes"/>
      <point x="128.17" y="378.798"/>
      <point x="149.01" y="374.19"/>
      <point x="169.85" y="369.55" type="curve" smooth="yes"/>
      <point x="173.65" y="368.7"/>
      <point x="177.8" y="369.4"/>
    </contour>
  </outline>
  <guideline angle="0" x="0" y="680"/>
  <guideline angle="0" x="0" y="38.1"/>
</glyph>
<glyph name="L.ss01" format="2">
  <advance width="362"/>
  <outline>
    <contour>
      <point x="151.218" y="-176.23" type="curve" smooth="yes"/>
      <point x="124.86" y="-169.899"/>
      <point x="95.5504" y="-127.535"/>
      <point x="97.3288" y="-100.999" type="curve" smooth="yes"/>
      <point x="99.7476" y="-65.0736"/>
      <point x="103.909" y="-29.29"/>
      <point x="106.862" y="6.5647" type="curve" smooth="yes"/>
      <point x="107.822" y="18.3384"/>
      <point x="110.561" y="31.2859"/>
      <point x="107.004" y="41.8503" type="curve" smooth="yes"/>
      <point x="97.8268" y="69.097"/>
      <point x="106.079" y="92.2176"/>
      <point x="115.968" y="117.117" type="curve" smooth="yes"/>
      <point x="130.916" y="154.648"/>
      <point x="150.84" y="260.433"/>
      <point x="154.099" y="298.88" type="curve" smooth="yes"/>
      <point x="161.218" y="382.236"/>
      <point x="170.146" y="431.978"/>
      <point x="166.157" y="518.312" type="curve" smooth="yes"/>
      <point x="164.627" y="551.535"/>
      <point x="157.691" y="584.508"/>
      <point x="152.534" y="617.518" type="curve" smooth="yes"/>
      <point x="146.06" y="658.886"/>
      <point x="140.226" y="700.432"/>
      <point x="131.476" y="741.302" type="curve" smooth="yes"/>
      <point x="126.888" y="762.715"/>
      <point x="116.501" y="782.848"/>
      <point x="108.996" y="803.656" type="curve" smooth="yes"/>
      <point x="107.858" y="806.822"/>
      <point x="107.964" y="810.521"/>
      <point x="107.929" y="814.007" type="curve" smooth="yes"/>
      <point x="107.822" y="830.583"/>
      <point x="107.715" y="847.194"/>
      <point x="107.929" y="863.77" type="curve" smooth="yes"/>
      <point x="108.178" y="884.721"/>
      <point x="104.372" y="906.312"/>
      <point x="117.888" y="925.27" type="curve" smooth="yes"/>
      <point x="120.129" y="928.436"/>
      <point x="122.641" y="931.879"/>
      <point x="123.108" y="945.028" type="curve" smooth="yes"/>
      <point x="123.412" y="953.609"/>
      <point x="123.108" y="963.757"/>
      <point x="131.369" y="963.757" type="curve" smooth="yes"/>
      <point x="139.631" y="963.757"/>
      <point x="162.138" y="961.552"/>
      <point x="177.042" y="957.71" type="curve" smooth="yes"/>
      <point x="183.978" y="955.932"/>
      <point x="189.669" y="949.209"/>
      <point x="195.787" y="944.549" type="curve" smooth="yes"/>
      <point x="223.994" y="923.172"/>
      <point x="223.674" y="901.047"/>
      <point x="211.224" y="865.726" type="curve" smooth="yes"/>
      <point x="200.518" y="835.349"/>
      <point x="204.251" y="804.667"/>
      <point x="209.557" y="788.479" type="curve" smooth="yes"/>
      <point x="214.243" y="774.183"/>
      <point x="217.343" y="763.248"/>
      <point x="218.677" y="738.068" type="curve" smooth="yes"/>
      <point x="223.816" y="641.065"/>
      <point x="223.303" y="572.233"/>
      <point x="221.604" y="459.919" type="curve" smooth="yes"/>
      <point x="220.21" y="367.755"/>
      <point x="219.406" y="317.768"/>
      <point x="217.841" y="272.167" type="curve" smooth="yes"/>
      <point x="215.208" y="194.695"/>
      <point x="211.011" y="117.295"/>
      <point x="207.632" y="39.8584" type="curve" smooth="yes"/>
      <point x="206.921" y="23.8874"/>
      <point x="206.494" y="7.91639"/>
      <point x="206.494" y="-8.0546" type="curve" smooth="yes"/>
      <point x="206.494" y="-32.0645"/>
      <point x="222.394" y="-46.9328"/>
      <point x="238.187" y="-61.8722" type="curve" smooth="yes"/>
      <point x="255.794" y="-78.5902"/>
      <point x="256.754" y="-100.893"/>
      <point x="254.3" y="-122.27" type="curve" smooth="yes"/>
      <point x="251.881" y="-143.577"/>
      <point x="244.91" y="-164.385"/>
      <point x="238.72" y="-190.565" type="curve"/>
      <point x="207.668" y="-185.656"/>
      <point x="178.963" y="-182.917"/>
    </contour>
  </outline>
  <guideline angle="0" x="0" y="802.894"/>
  <guideline angle="0" x="0" y="54.8611"/>
</glyph>
